<svg width="1300" height="733" viewBox="0 0 1300 733" fill="none" xmlns="http://www.w3.org/2000/svg">
<path fill-rule="evenodd" clip-rule="evenodd" d="M1181.19 54.761L1300.1 0.910939L1299.69 0L1180.69 53.8921L1180.59 53.934L1180.52 54.0089L1112.64 127.752L943.31 156.063L943.155 156.089L943.042 156.199L692.188 401.358H578.392H496.392H496.149L495.999 401.55L420.649 497.528H319.392H319.172L319.024 497.69L211.643 614.635L78.318 634.586L78.1226 634.616L78 634.77L0 733.263L0.783942 733.884L78.6613 635.546L211.966 615.598L212.141 615.572L212.26 615.442L319.612 498.528H420.892H421.135L421.285 498.337L496.635 402.358H578.392H692.392H692.596L692.741 402.216L943.629 157.024L1112.97 128.71L1113.14 128.682L1113.26 128.555L1181.19 54.761ZM1291.89 14.8577H1290.89V734.038H1291.89V14.8577ZM1274.89 21.3619H1275.89V734.038H1274.89V21.3619ZM1258.89 31.5828H1257.89V734.038H1258.89V31.5828ZM1240.89 39.9453H1241.89V734.038H1240.89V39.9453ZM1224.89 48.3079H1223.89V734.038H1224.89V48.3079ZM1206.89 58.5288H1207.89V734.038H1206.89V58.5288ZM1190.89 65.9622H1189.89V734.038H1190.89V65.9622ZM1172.89 79.8998H1173.89V734.038H1172.89V79.8998ZM1156.89 98.4833H1155.89V734.038H1156.89V98.4833ZM1138.89 117.067H1139.89V734.038H1138.89V117.067ZM1122.89 131.934H1121.89V734.038H1122.89V131.934ZM1104.89 139.367H1105.89V734.038H1104.89V139.367ZM1088.89 142.154H1087.89V734.038H1088.89V142.154ZM1070.89 144.942H1071.89V734.038H1070.89V144.942ZM1054.89 146.8H1053.89V734.038H1054.89V146.8ZM1036.89 149.588H1037.89V734.038H1036.89V149.588ZM1020.89 152.375H1019.89V734.038H1020.89V152.375ZM1002.89 155.163H1003.89V734.038H1002.89V155.163ZM986.892 160.738H985.892V734.038H986.892V160.738ZM968.892 161.667H969.892V734.038H968.892V161.667ZM952.892 166.313H951.892V734.038H952.892V166.313ZM934.892 181.18H935.892V734.038H934.892V181.18ZM918.892 191.401H917.892V734.038H918.892V191.401ZM900.892 209.055H901.892V734.038H900.892V209.055ZM884.892 226.709H883.892V734.038H884.892V226.709ZM866.892 249.939H867.892V734.038H866.892V249.939ZM850.892 264.805H849.892V734.038H850.892V264.805ZM832.892 278.743H833.892V734.038H832.892V278.743ZM816.892 297.326H815.892V734.038H816.892V297.326ZM798.892 314.051H799.892V734.038H798.892V314.051ZM782.892 329.847H781.892V734.038H782.892V329.847ZM764.892 350.289H765.892V734.038H764.892V350.289ZM748.892 364.227H747.892V734.038H748.892V364.227ZM730.892 377.235H731.892V734.038H730.892V377.235ZM714.892 396.748H713.892V734.038H714.892V396.748ZM696.892 406.04H697.892V734.038H696.892V406.04ZM510.892 410.685H509.892V734.038H510.892V410.685ZM492.892 421.836H493.892V734.038H492.892V421.836ZM476.892 439.49H475.892V734.038H476.892V439.49ZM458.892 461.79H459.892V734.038H458.892V461.79ZM442.892 483.161H441.892V734.038H442.892V483.161ZM424.892 502.674H425.892V734.038H424.892V502.674ZM322.892 505.461H323.892V734.038H322.892V505.461ZM306.892 520.328H305.892V734.038H306.892V520.328ZM288.892 538.911H289.892V734.038H288.892V538.911ZM272.892 563.07H271.892V734.038H272.892V563.07ZM254.892 576.078H255.892V734.038H254.892V576.078ZM238.892 597.449H237.892V734.038H238.892V597.449ZM220.892 614.174H221.892V734.038H220.892V614.174ZM204.892 621.608H203.892V734.038H204.892V621.608ZM186.892 623.466H187.892V734.038H186.892V623.466ZM170.892 626.254H169.892V734.038H170.892V626.254ZM152.892 629.041H153.892V734.038H152.892V629.041ZM136.892 631.829H135.892V734.038H136.892V631.829ZM118.892 633.687H119.892V734.038H118.892V633.687ZM102.892 635.545H101.892V734.038H102.892V635.545ZM84.892 643.908H85.892V734.038H84.892V643.908ZM68.892 658.775H67.892V734.038H68.892V658.775ZM50.892 682.004H51.892V734.038H50.892V682.004ZM33.892 702.446H34.892V734.038H33.892V702.446ZM340.892 505.461H339.892V734.038H340.892V505.461ZM356.892 505.461H357.892V734.038H356.892V505.461ZM374.892 505.461H373.892V734.038H374.892V505.461ZM390.892 505.461H391.892V734.038H390.892V505.461ZM408.892 505.461H407.892V734.038H408.892V505.461ZM526.892 410.685H527.892V734.038H526.892V410.685ZM544.892 410.685H543.892V734.038H544.892V410.685ZM560.892 410.685H561.892V734.038H560.892V410.685ZM577.892 410.685V734.038H578.892V410.685H577.892ZM594.892 410.685H595.892V734.038H594.892V410.685ZM612.892 410.685H611.892V734.038H612.892V410.685ZM628.892 410.685H629.892V734.038H628.892V410.685ZM646.892 410.685H645.892V734.038H646.892V410.685ZM662.892 410.685H663.892V734.038H662.892V410.685ZM680.892 410.685H679.892V734.038H680.892V410.685ZM17.892 724.746H16.892V734.038H17.892V724.746Z" fill="#E0E0E0" fill-opacity="0.3"/>
<path d="M1073.39 134.721L1112.89 128.217L1179.89 55.2767L1211.89 40.4099" stroke="#D60A3D"/>
</svg>
