<svg width="24" height="24" viewBox="0 0 24 24" fill="none" xmlns="http://www.w3.org/2000/svg">
<mask id="mask0_240_707" style="mask-type:alpha" maskUnits="userSpaceOnUse" x="0" y="0" width="24" height="24">
<rect width="24" height="24" transform="matrix(-1 0 0 1 24 0)" fill="#D9D9D9"/>
</mask>
<g mask="url(#mask0_240_707)">
<path d="M11.0537 12L15.127 7.927C15.2653 7.7885 15.3362 7.61441 15.3395 7.40475C15.3427 7.19525 15.2718 7.018 15.127 6.873C14.982 6.72816 14.8063 6.65575 14.6 6.65575C14.3937 6.65575 14.218 6.72816 14.073 6.873L9.57874 11.3672C9.48524 11.4609 9.41924 11.5597 9.38074 11.6635C9.34224 11.7673 9.32299 11.8795 9.32299 12C9.32299 12.1205 9.34224 12.2327 9.38074 12.3365C9.41924 12.4403 9.48524 12.5391 9.57874 12.6327L14.073 17.127C14.2115 17.2653 14.3856 17.3362 14.5952 17.3395C14.8047 17.3427 14.982 17.2718 15.127 17.127C15.2718 16.982 15.3442 16.8063 15.3442 16.6C15.3442 16.3937 15.2718 16.218 15.127 16.073L11.0537 12Z" fill="#15181C"/>
</g>
</svg>
