<svg width="44" height="44" viewBox="0 0 44 44" fill="none" xmlns="http://www.w3.org/2000/svg">
<rect width="44" height="44" rx="22" fill="#D9083C"/>
<mask id="mask0_2_937" style="mask-type:alpha" maskUnits="userSpaceOnUse" x="10" y="10" width="24" height="24">
<rect x="10" y="10" width="24" height="24" fill="#D9D9D9"/>
</mask>
<g mask="url(#mask0_2_937)">
<path d="M22 23.0538L16.927 28.127C16.7885 28.2653 16.6144 28.3362 16.4048 28.3395C16.1953 28.3427 16.018 28.2718 15.873 28.127C15.7282 27.982 15.6558 27.8063 15.6558 27.6C15.6558 27.3937 15.7282 27.218 15.873 27.073L20.9463 22L15.873 16.927C15.7347 16.7885 15.6638 16.6144 15.6605 16.4048C15.6573 16.1953 15.7282 16.018 15.873 15.873C16.018 15.7282 16.1937 15.6558 16.4 15.6558C16.6063 15.6558 16.782 15.7282 16.927 15.873L22 20.9463L27.073 15.873C27.2115 15.7347 27.3856 15.6638 27.5953 15.6605C27.8048 15.6573 27.982 15.7282 28.127 15.873C28.2718 16.018 28.3443 16.1937 28.3443 16.4C28.3443 16.6063 28.2718 16.782 28.127 16.927L23.0538 22L28.127 27.073C28.2653 27.2115 28.3362 27.3856 28.3395 27.5953C28.3427 27.8048 28.2718 27.982 28.127 28.127C27.982 28.2718 27.8063 28.3443 27.6 28.3443C27.3937 28.3443 27.218 28.2718 27.073 28.127L22 23.0538Z" fill="white"/>
</g>
</svg>
