<svg width="56" height="56" viewBox="0 0 56 56" fill="none" xmlns="http://www.w3.org/2000/svg">
<rect width="56" height="56" rx="4" fill="#D60A3D"/>
<g clip-path="url(#clip0_1_413)">
<path d="M39.0268 29.7728L26.8803 13.8657" stroke="white" stroke-width="1.5" stroke-miterlimit="10" stroke-linecap="round" stroke-linejoin="round"/>
<path d="M18.8598 34.9792L21.8897 32.6656" stroke="white" stroke-width="1.5" stroke-miterlimit="10" stroke-linecap="round" stroke-linejoin="round"/>
<path d="M16.5461 31.9495L19.5761 29.6358" stroke="white" stroke-width="1.5" stroke-miterlimit="10" stroke-linecap="round" stroke-linejoin="round"/>
<path d="M27.2333 33.3821L19.6585 39.1661C18.8217 39.805 17.6255 39.6446 16.9867 38.808L12.3594 32.7481C11.7205 31.9114 11.8809 30.7152 12.7176 30.0763L20.2924 24.2923L27.2333 33.3821Z" stroke="white" stroke-width="1.5" stroke-miterlimit="10" stroke-linecap="round" stroke-linejoin="round"/>
<path d="M27.2333 33.3819L42.9243 28.5952L29.0426 10.4158L20.2924 24.2921" stroke="white" stroke-width="1.5" stroke-miterlimit="10" stroke-linecap="round" stroke-linejoin="round"/>
<path d="M34.0554 16.9807L37.8565 15.6771L40.1702 18.707L37.9115 22.0306" stroke="white" stroke-width="1.5" stroke-miterlimit="10" stroke-linecap="round" stroke-linejoin="round"/>
<path d="M25.5019 34.704L29.9873 43.2703L25.4425 46.7408L20.957 38.1745" stroke="white" stroke-width="1.5" stroke-miterlimit="10" stroke-linecap="round" stroke-linejoin="round"/>
</g>
<defs>
<clipPath id="clip0_1_413">
<rect width="32" height="32" fill="white" transform="translate(5.57318 24.9937) rotate(-37.365)"/>
</clipPath>
</defs>
</svg>
