<svg width="6" height="9" viewBox="0 0 6 9" fill="none" xmlns="http://www.w3.org/2000/svg">
<path d="M3.78855 4.47234L0.394176 1.07817C0.278899 0.962758 0.219871 0.817688 0.217093 0.642966C0.214454 0.468383 0.273482 0.320674 0.394176 0.199841C0.51501 0.0791461 0.661398 0.0187988 0.833343 0.0187988C1.00529 0.0187988 1.15168 0.0791461 1.27251 0.199841L5.01772 3.94505C5.09563 4.02311 5.15064 4.1054 5.18272 4.19192C5.2148 4.27845 5.23084 4.37192 5.23084 4.47234C5.23084 4.57276 5.2148 4.66623 5.18272 4.75276C5.15064 4.83929 5.09563 4.92158 5.01772 4.99963L1.27251 8.74484C1.15709 8.86012 1.01202 8.91915 0.837301 8.92192C0.662718 8.92456 0.51501 8.86554 0.394176 8.74484C0.273482 8.62401 0.213135 8.47762 0.213135 8.30567C0.213135 8.13373 0.273482 7.98734 0.394176 7.86651L3.78855 4.47234Z" fill="#D60A3D"/>
</svg>
