<svg width="244" height="264" viewBox="0 0 244 264" fill="none" xmlns="http://www.w3.org/2000/svg">
<path d="M8.68563 130.131H43.4281C45.9006 130.131 47.9664 130.959 49.6253 132.616C51.2843 134.273 52.1138 136.337 52.1138 138.806C52.1138 141.276 51.2843 143.339 49.6253 144.996C47.9664 146.653 45.9006 147.482 43.4281 147.482H8.68563C6.21312 147.482 4.14739 146.653 2.48843 144.996C0.829479 143.339 0 141.276 0 138.806C0 136.337 0.829479 134.273 2.48843 132.616C4.14739 130.959 6.21312 130.131 8.68563 130.131ZM46.9024 227.161L71.0875 203.004C72.7812 201.312 74.7746 200.427 77.0676 200.349C79.3606 200.274 81.4654 201.159 83.382 203.004C85.2987 204.918 86.2729 206.982 86.3047 209.194C86.3395 211.406 85.3985 213.469 83.4819 215.384L59.2968 239.54C57.6031 241.232 55.5924 242.117 53.2646 242.195C50.9398 242.273 48.819 241.355 46.9024 239.441C45.0552 237.526 44.1143 235.48 44.0796 233.303C44.0448 231.122 44.9858 229.075 46.9024 227.161ZM71.0875 74.6087L46.9024 50.4521C45.2087 48.7604 44.3228 46.7694 44.2446 44.4791C44.1693 42.1888 45.0552 40.0865 46.9024 38.1721C48.819 36.2578 50.8848 35.2847 53.0996 35.2529C55.3144 35.2182 57.3801 36.158 59.2968 38.0724L83.4819 62.2289C85.1756 63.9206 86.0615 65.9289 86.1397 68.2539C86.2179 70.576 85.2987 72.6943 83.382 74.6087C81.4654 76.4536 79.417 77.3935 77.237 77.4282C75.054 77.4629 73.0042 76.523 71.0875 74.6087ZM251.414 260.461L182.733 191.861L173.378 220.888C172.799 222.467 171.88 223.708 170.62 224.61C169.364 225.509 167.979 225.959 166.464 225.959C164.95 225.959 163.62 225.492 162.473 224.558C161.324 223.624 160.46 222.367 159.881 220.789L133.893 135.436C133.314 133.345 133.275 131.477 133.776 129.832C134.277 128.186 135.251 126.641 136.699 125.195C138.146 123.749 139.694 122.774 141.341 122.271C142.989 121.771 144.859 121.81 146.952 122.388L234.612 148.683C236.193 149.262 237.435 150.123 238.338 151.269C239.238 152.414 239.689 153.742 239.689 155.255C239.689 156.767 239.311 158.097 238.555 159.246C237.797 160.391 236.627 161.252 235.046 161.831L204.981 172.705L270.792 238.439C273.597 241.241 275 244.511 275 248.25C275 251.987 273.597 255.256 270.792 258.058L268.386 260.461C266.026 262.821 263.198 264.001 259.9 264.001C256.605 264.001 253.777 262.821 251.414 260.461ZM215.838 62.2289L240.123 37.9726C241.75 36.3474 243.727 35.4625 246.055 35.3179C248.383 35.1733 250.504 36.0582 252.417 37.9726C254.267 39.8176 255.208 41.8476 255.24 44.0627C255.275 46.2749 254.367 48.3382 252.517 50.2526L228.232 74.6087C226.605 76.3004 224.628 77.1852 222.3 77.2633C219.975 77.3385 217.854 76.4536 215.938 74.6087C214.024 72.6943 213.05 70.631 213.015 68.4188C212.98 66.2066 213.921 64.1433 215.838 62.2289Z" fill="#1D2126"/>
<path d="M85.8048 209.201L85.8048 209.202C85.837 211.249 84.9724 213.188 83.1286 215.03L58.9434 239.187C57.3366 240.791 55.4451 241.622 53.2478 241.695C51.0856 241.768 49.0945 240.922 47.2592 239.09C45.4815 237.247 44.6118 235.318 44.5795 233.295C44.5474 231.281 45.4103 229.358 47.2557 227.514L71.4409 203.358C73.0493 201.751 74.9241 200.923 77.0846 200.849C79.2195 200.779 81.197 201.596 83.0321 203.361C84.8762 205.204 85.7752 207.148 85.8048 209.201ZM53.1068 35.7528L53.1074 35.7528C55.1579 35.7207 57.0997 36.5846 58.9434 38.4261L83.1286 62.5827C84.7354 64.1876 85.5662 66.0766 85.64 68.2707C85.7127 70.4299 84.866 72.4184 83.0319 74.2517C81.1863 76.027 79.2547 76.896 77.229 76.9282C75.2124 76.9603 73.2863 76.0982 71.4409 74.2549L47.2557 50.0983C45.6473 48.4919 44.8179 46.6195 44.7443 44.4621C44.6744 42.3304 45.4917 40.3556 47.259 38.5226C49.1044 36.6807 51.0509 35.7824 53.1068 35.7528ZM183.086 191.507L182.507 190.929L182.257 191.707L172.905 220.726C172.357 222.214 171.498 223.367 170.329 224.203C169.156 225.043 167.872 225.459 166.464 225.459C165.062 225.459 163.844 225.03 162.789 224.17L162.789 224.17C161.721 223.303 160.907 222.129 160.355 220.629L134.375 135.303C134.375 135.3 134.374 135.298 134.373 135.296C133.815 133.276 133.788 131.509 134.254 129.977C134.727 128.424 135.652 126.947 137.052 125.548C138.452 124.15 139.931 123.225 141.487 122.75C143.021 122.284 144.79 122.31 146.814 122.869C146.815 122.869 146.817 122.87 146.819 122.87L234.454 149.158C235.954 149.709 237.11 150.519 237.945 151.578C238.773 152.631 239.189 153.85 239.189 155.255C239.189 156.68 238.834 157.912 238.137 158.971C237.45 160.007 236.378 160.811 234.875 161.361C234.875 161.361 234.875 161.361 234.874 161.361L204.811 172.235L204.071 172.503L204.627 173.059L270.438 238.792C273.156 241.507 274.5 244.653 274.5 248.25C274.5 251.845 273.156 254.989 270.438 257.704L268.033 260.107L268.032 260.107C265.765 262.375 263.063 263.501 259.9 263.501C256.74 263.501 254.038 262.375 251.768 260.107L183.086 191.507ZM252.064 38.3261L252.064 38.3266C253.84 40.0972 254.711 42.0082 254.74 44.0699L254.74 44.0706C254.773 46.1232 253.937 48.0634 252.16 49.9025C252.159 49.9033 252.159 49.9042 252.158 49.9051L227.878 74.2556L227.872 74.2621C226.334 75.8606 224.48 76.6898 222.284 76.7636C220.115 76.8337 218.121 76.0155 216.288 74.2515C214.447 72.4084 213.547 70.4642 213.515 68.4109C213.483 66.3635 214.347 64.4243 216.191 62.5827L240.476 38.3264C242.016 36.7886 243.878 35.9541 246.086 35.817C248.247 35.6827 250.233 36.4952 252.064 38.3261ZM8.68563 130.631H43.4281C45.7762 130.631 47.7123 131.412 49.272 132.97C50.8316 134.528 51.6138 136.462 51.6138 138.806C51.6138 141.151 50.8316 143.085 49.272 144.642C47.7123 146.2 45.7762 146.982 43.4281 146.982H8.68563C6.3376 146.982 4.40145 146.2 2.84178 144.642C1.28214 143.085 0.5 141.151 0.5 138.806C0.5 136.462 1.28214 134.528 2.84178 132.97C4.40145 131.412 6.3376 130.631 8.68563 130.631Z" stroke="white" stroke-opacity="0.3"/>
<path d="M155.502 49.2126L155.502 49.2129C153.942 50.7709 152.007 51.5522 149.662 51.5522C147.314 51.5522 145.378 50.7708 143.818 49.2129C142.259 47.6551 141.477 45.7216 141.477 43.3768V8.67536C141.477 6.33063 142.259 4.39704 143.818 2.83925C145.378 1.28142 147.314 0.5 149.662 0.5C152.007 0.5 153.942 1.28129 155.502 2.83925L155.502 2.83955C157.064 4.39741 157.848 6.3309 157.848 8.67536V43.3768C157.848 45.7213 157.064 47.6548 155.502 49.2126Z" fill="#1D2126" stroke="#D60A3D"/>
</svg>
