<svg width="172" height="28" viewBox="0 0 172 28" fill="none" xmlns="http://www.w3.org/2000/svg">
<path d="M68.379 14.8239C66.4849 17.3081 64.6479 19.6782 62.8584 22.0958C62.3349 22.8001 61.0595 22.8477 60.4979 22.0863C58.7942 19.7924 57.0523 17.527 55.32 15.2522C55.2248 15.1285 55.1296 15.0142 54.9583 14.8144C54.9583 15.0618 54.9583 15.2046 54.9583 15.3474C54.9583 17.5746 54.9583 19.7924 54.9583 22.0196C54.9583 22.3242 54.9202 22.467 54.5681 22.4384C54.0446 22.4004 53.5115 22.4194 52.988 22.4384C52.7596 22.4384 52.6549 22.4099 52.6549 22.1339C52.6644 18.7073 52.6549 15.2903 52.6644 11.8637C52.6644 11.0547 53.3973 10.5407 54.2254 10.6739C54.7204 10.7596 55.0725 10.9976 55.3676 11.3973C57.3759 14.1005 59.4033 16.7941 61.4021 19.4973C61.6306 19.8114 61.7353 19.8495 61.9923 19.4973C64.0577 16.7275 66.1613 13.9863 68.2267 11.207C68.7502 10.5026 69.8258 10.5787 70.3778 10.9785C70.6634 11.1784 70.6824 11.483 70.6824 11.7971C70.6824 14.2528 70.6824 16.718 70.6824 19.1737C70.6824 20.135 70.6729 21.1059 70.6824 22.0672C70.6824 22.3623 70.6063 22.4384 70.3207 22.4289C69.7972 22.4099 69.2642 22.4004 68.7407 22.4289C68.4171 22.448 68.36 22.3337 68.3695 22.0387C68.379 19.8114 68.3695 17.5937 68.3695 15.3664C68.3695 15.2236 68.3695 15.0809 68.3695 14.8239H68.379Z" fill="white"/>
<path d="M86.2637 15.0333C86.2637 13.5865 86.2637 12.1398 86.2637 10.6835C86.2637 10.3979 86.3113 10.2742 86.6349 10.2837C87.206 10.3123 87.7771 10.3027 88.3482 10.2837C88.6147 10.2837 88.7004 10.3408 88.6909 10.6168C88.6718 11.3878 88.6909 12.1683 88.6814 12.9393C88.6814 13.2153 88.767 13.2819 89.024 13.2724C90.6516 13.2629 92.2697 13.2439 93.8973 13.2724C94.5731 13.2819 95.2584 13.3391 95.9247 13.5104C97.4381 13.9006 97.9235 14.9 98.0663 16.1755C98.1901 17.2796 98.152 18.3837 98.0663 19.4973C97.9616 20.9917 97.0479 22.0197 95.563 22.2291C93.4595 22.5146 91.3369 22.4861 89.2334 22.2957C87.8438 22.172 86.8253 21.7341 86.4065 20.1351C86.2828 19.6496 86.2637 19.1642 86.2637 18.6597C86.2637 17.4414 86.2637 16.2326 86.2637 15.0143V15.0333ZM91.5844 15.4045C90.7183 15.4045 89.8616 15.4045 88.9955 15.395C88.748 15.395 88.6623 15.4521 88.6718 15.7091C88.6814 16.6895 88.6623 17.6698 88.6814 18.6407C88.7099 19.7543 89.043 20.2207 90.0615 20.2778C91.4607 20.354 92.8694 20.3445 94.2685 20.2778C95.2013 20.2398 95.4964 19.9352 95.6297 19.0119C95.7439 18.2505 95.7248 17.4604 95.6297 16.699C95.5059 15.6615 95.1537 15.4711 94.0687 15.4045C93.2406 15.3569 92.403 15.395 91.5749 15.395L91.5844 15.4045Z" fill="white"/>
<path d="M109.222 22.4194C107.489 22.4194 106.071 22.4194 104.653 22.4194C104.358 22.4194 104.234 22.3528 104.263 22.0387C104.291 21.5914 104.291 21.1345 104.263 20.6776C104.244 20.354 104.367 20.2969 104.662 20.2969C107.328 20.3064 109.983 20.2969 112.648 20.2969C114.095 20.2969 114.219 20.1731 114.219 18.7264C114.219 17.9744 113.914 17.6603 113.162 17.6603C111.259 17.6603 109.355 17.6603 107.461 17.6603C106.966 17.6603 106.471 17.6032 105.995 17.489C105.005 17.2606 104.434 16.6704 104.329 15.5568C104.244 14.6431 104.206 13.7198 104.415 12.806C104.662 11.759 105.414 11.1213 106.509 10.9881C107.927 10.8263 109.345 10.931 110.754 10.9024C110.944 10.9024 111.011 10.969 111.011 11.1499C111.011 11.6734 110.992 12.2064 111.011 12.7299C111.011 12.9869 110.897 13.0154 110.697 13.0059C109.745 13.0059 108.793 13.0059 107.842 13.0059C106.833 13.0059 106.623 13.2629 106.576 14.2814C106.528 15.5187 106.89 15.6615 107.927 15.652C109.65 15.6234 111.382 15.6329 113.105 15.652C113.571 15.652 114.038 15.7091 114.485 15.8043C115.789 16.0803 116.303 16.5848 116.475 17.8888C116.579 18.6597 116.551 19.4593 116.455 20.2493C116.294 21.6199 115.342 22.1815 114.047 22.3243C112.344 22.5051 110.63 22.3528 109.241 22.4099L109.222 22.4194Z" fill="#D60A3D"/>
<path d="M78.6968 22.4195C77.3928 22.4195 76.2982 22.448 75.2131 22.2576C73.5093 21.9531 72.8811 21.1059 72.6908 19.6497C72.5194 18.3647 72.5194 17.0702 72.7574 15.7757C72.9954 14.4527 73.7949 13.6341 75.1179 13.4628C77.3547 13.1773 79.601 13.1773 81.8283 13.4628C83.2465 13.6437 84.1412 14.6716 84.2744 16.1089C84.3791 17.2891 84.4172 18.4694 84.2649 19.6401C84.0936 20.9822 83.5415 21.9055 81.8378 22.2386C80.7337 22.4575 79.6105 22.429 78.6968 22.4195ZM78.6968 15.4045C77.9163 15.4045 77.3261 15.3569 76.7455 15.4141C75.8032 15.4997 75.2512 15.5188 75.0894 16.7752C74.9942 17.4985 75.0227 18.2314 75.0894 18.9548C75.156 19.7639 75.5938 20.1922 76.4029 20.2398C77.783 20.335 79.1727 20.3445 80.5528 20.2398C81.2857 20.1827 81.7711 19.8495 81.8473 19.0881C81.933 18.2505 81.971 17.3938 81.8283 16.5562C81.695 15.7948 81.4475 15.6235 80.6861 15.4712C79.9627 15.3284 79.2298 15.4426 78.7063 15.395L78.6968 15.4045Z" fill="white"/>
<path d="M160.306 19.1738C160.306 18.2695 160.268 17.3558 160.306 16.4516C160.411 14.2909 161.515 13.5771 163.342 13.3772C164.846 13.2154 166.35 13.282 167.854 13.301C168.644 13.301 169.453 13.3772 170.214 13.6722C171.271 14.0815 171.775 14.9096 171.89 15.9852C172.099 18.0411 171.937 20.1066 171.985 22.1625C171.985 22.3433 171.947 22.429 171.747 22.429C171.09 22.4195 170.433 22.41 169.767 22.429C169.472 22.429 169.52 22.2577 169.52 22.0863C169.52 20.4016 169.52 18.7169 169.52 17.0417C169.52 16.6705 169.462 16.3183 169.263 15.9947C169.025 15.614 168.634 15.4807 168.216 15.4521C166.845 15.3474 165.465 15.3189 164.094 15.4521C162.99 15.5568 162.695 16.0137 162.695 17.213C162.695 18.8121 162.685 20.4016 162.695 22.0007C162.695 22.3529 162.6 22.448 162.257 22.429C161.772 22.4004 161.286 22.3909 160.81 22.429C160.392 22.4576 160.23 22.3624 160.249 21.896C160.296 20.9917 160.258 20.078 160.258 19.1738C160.258 19.1738 160.268 19.1738 160.277 19.1738H160.306Z" fill="#D60A3D"/>
<path d="M150.921 16.5562C150.921 17.451 150.959 18.3457 150.921 19.2309C150.826 21.4201 149.712 22.1339 147.856 22.3338C146.381 22.4956 144.905 22.429 143.43 22.41C142.707 22.4004 141.983 22.3338 141.279 22.1149C140.165 21.7627 139.594 20.9917 139.413 19.8686C139.233 18.774 139.347 17.6794 139.328 16.5848C139.309 15.6044 139.328 14.6241 139.318 13.6437C139.318 13.3486 139.413 13.282 139.689 13.2915C140.261 13.3105 140.832 13.3201 141.403 13.2915C141.755 13.2725 141.803 13.4057 141.803 13.7103C141.793 15.3379 141.803 16.956 141.803 18.5836C141.803 19.802 142.278 20.3064 143.487 20.3064C144.801 20.3064 146.114 20.4206 147.428 20.2303C148.085 20.1351 148.37 19.8305 148.475 19.1928C148.627 18.3171 148.532 17.4414 148.551 16.5658C148.57 15.5854 148.56 14.605 148.551 13.6246C148.551 13.3486 148.637 13.282 148.894 13.282C149.474 13.301 150.064 13.301 150.645 13.282C150.902 13.282 150.959 13.3772 150.959 13.6151C150.95 14.5955 150.959 15.5759 150.959 16.5562H150.94H150.921Z" fill="#D60A3D"/>
<path d="M135.206 18.8787C135.206 19.9447 135.206 21.0107 135.206 22.0768C135.206 22.3433 135.14 22.429 134.864 22.4194C134.283 22.4004 133.693 22.3909 133.112 22.4194C132.751 22.4385 132.722 22.2862 132.722 21.9911C132.732 19.8971 132.722 17.8126 132.732 15.7186C132.732 15.376 132.646 15.2808 132.303 15.2808C131.418 15.2998 131.418 15.2808 131.418 14.4051C131.418 14.3861 131.418 14.3765 131.418 14.3575C131.428 14.0053 131.313 13.5675 131.485 13.3391C131.647 13.1201 132.113 13.2724 132.446 13.2724C132.694 13.2724 132.741 13.1773 132.732 12.9679C132.722 12.3206 132.732 11.6829 132.732 11.0357C132.732 10.7882 132.798 10.712 133.055 10.712C133.664 10.7311 134.283 10.7311 134.892 10.712C135.14 10.712 135.225 10.7787 135.216 11.0261C135.197 11.6258 135.235 12.2254 135.197 12.8251C135.178 13.2058 135.311 13.282 135.663 13.2724C136.368 13.2439 137.062 13.2724 137.767 13.2534C138.052 13.2534 138.109 13.3391 138.1 13.5961C138.081 14.0529 138.081 14.5003 138.1 14.9572C138.1 15.2046 138.043 15.2903 137.786 15.2808C137.072 15.2617 136.349 15.2903 135.635 15.2713C135.302 15.2617 135.187 15.3379 135.197 15.6996C135.225 16.7561 135.197 17.8031 135.197 18.8596L135.206 18.8787Z" fill="#D60A3D"/>
<path d="M152.939 19.1738C152.996 18.2981 152.882 17.213 153.015 16.1374C153.186 14.7002 154.062 13.7198 155.48 13.4628C156.48 13.282 157.479 13.282 158.488 13.282C158.688 13.282 158.774 13.3391 158.774 13.5485C158.764 14.0434 158.764 14.5479 158.774 15.0429C158.774 15.2713 158.678 15.3094 158.488 15.2998C157.964 15.2998 157.431 15.2998 156.908 15.2998C155.899 15.3094 155.423 15.7853 155.414 16.8228C155.404 18.5456 155.404 20.2779 155.414 22.0007C155.414 22.3148 155.356 22.4385 155.014 22.4195C154.433 22.3909 153.843 22.4004 153.262 22.4195C153.005 22.4195 152.948 22.3338 152.948 22.0958C152.958 21.1916 152.948 20.2779 152.948 19.1738H152.939Z" fill="#D60A3D"/>
<path d="M102.54 18.0316C102.54 19.3736 102.54 20.7252 102.54 22.0673C102.54 22.3624 102.454 22.4385 102.178 22.429C101.569 22.4099 100.95 22.4099 100.332 22.429C100.122 22.429 100.056 22.3719 100.056 22.1625C100.056 19.3832 100.056 16.6038 100.056 13.8245C100.056 13.6151 100.122 13.5485 100.332 13.558C100.95 13.5675 101.559 13.577 102.178 13.558C102.464 13.5485 102.549 13.6246 102.54 13.9197C102.521 15.2903 102.54 16.6705 102.54 18.0506V18.0316Z" fill="white"/>
<path d="M53.5877 5.37231C54.6442 5.41991 55.6151 5.64834 56.5098 6.16233C56.8049 6.33365 57.0333 6.55257 56.8524 6.89523C56.6716 7.23788 56.367 7.17126 56.0624 6.99993C53.7305 5.72449 51.1606 6.32414 49.6091 8.49429C49.3997 8.78935 49.1712 8.95116 48.8476 8.73224C48.5335 8.51332 48.6382 8.2373 48.8191 7.97079C49.9803 6.28606 51.6174 5.48653 53.5972 5.37231H53.5877Z" fill="#D60A3D"/>
<path d="M50.0279 9.21773C50.0089 9.06544 50.1041 8.95122 50.1897 8.82749C51.3129 7.04758 53.9399 6.45745 55.7198 7.56156C56.0053 7.74241 56.1767 7.96133 55.9863 8.27543C55.815 8.57049 55.5675 8.56098 55.2724 8.4182C53.5116 7.57108 52.141 7.8947 50.9226 9.43665C50.7608 9.64605 50.5704 9.75075 50.323 9.66509C50.1326 9.59846 50.0184 9.44617 50.0279 9.21773Z" fill="#D60A3D"/>
<path d="M102.54 11.5211C102.54 12.6633 102.454 12.7585 101.312 12.7585C101.179 12.7585 101.046 12.7585 100.922 12.7585C100.275 12.7299 100.075 12.5205 100.075 11.8828C100.075 11.5877 100.094 11.3022 100.075 11.0071C100.046 10.5407 100.265 10.2932 100.703 10.2361C101.122 10.1885 101.54 10.1885 101.959 10.2456C102.407 10.3123 102.578 10.5597 102.549 10.9976C102.54 11.1689 102.549 11.3498 102.549 11.5211H102.54Z" fill="white"/>
<path d="M53.6258 8.62754C54.0446 8.6085 54.4348 8.73224 54.7965 8.91309C55.0726 9.04634 55.32 9.24622 55.1582 9.58888C54.9964 9.95057 54.6918 9.93154 54.3872 9.76973C54.1588 9.64599 53.9304 9.58888 53.6829 9.57936C53.1118 9.56033 52.674 9.78876 52.3313 10.2361C52.1219 10.5026 51.8839 10.7025 51.5698 10.436C51.2653 10.179 51.3985 9.90298 51.5984 9.63647C52.1124 8.9702 52.7977 8.64658 53.6258 8.62754Z" fill="#D60A3D"/>
<path d="M130.2 15.9851C130.086 14.7001 129.429 13.8911 128.172 13.5484C126.802 13.1677 125.384 13.32 123.994 13.2914C123.813 13.2914 123.775 13.3771 123.775 13.5294C123.775 13.9387 123.794 14.3479 123.775 14.7572C123.765 14.9952 123.851 15.0523 124.08 15.0523C124.889 15.0428 125.688 15.0523 126.497 15.0523C127.363 15.0523 127.744 15.4235 127.82 16.2801C127.849 16.5942 127.792 16.7465 127.411 16.737C126.326 16.7085 125.241 16.7275 123.918 16.7275C122.785 16.7751 121.414 16.6609 120.044 16.8036C119.006 16.9083 118.254 17.4128 118.036 18.2695C117.874 18.8977 117.845 19.5449 117.921 20.1826C118.093 21.5628 118.483 21.972 119.853 22.2766C120.291 22.3718 120.748 22.4194 121.196 22.4194C122.747 22.4384 124.299 22.4194 125.85 22.4194C126.583 22.4194 127.306 22.3623 128.03 22.2385C129.191 22.0482 129.895 21.42 130.114 20.2492C130.39 18.831 130.333 17.4033 130.209 15.9756L130.2 15.9851ZM127.82 18.5931C127.782 18.9548 127.839 19.3165 127.744 19.6781C127.582 20.3063 127.24 20.649 126.592 20.649C124.784 20.668 122.966 20.6585 121.157 20.649C120.653 20.649 120.377 20.3444 120.367 19.8495C120.348 18.6502 120.244 18.2028 121.881 18.2695C121.986 18.2695 122.081 18.2695 122.185 18.279C122.899 18.298 123.623 18.279 124.337 18.279C125.393 18.279 126.44 18.279 127.497 18.279C127.725 18.279 127.849 18.3266 127.83 18.5836L127.82 18.5931Z" fill="#D60A3D"/>
<path d="M5.62541 17.0131C5.68252 17.2986 5.73011 17.5556 5.79673 17.7936C5.83481 17.9268 5.74914 17.9744 5.68251 18.041C5.09239 18.6693 4.51177 19.307 4.01683 20.0113C3.51236 20.7347 3.07452 21.4771 2.94127 22.3718C2.80801 23.2856 3.22682 24.1042 4.09297 24.4849C4.81636 24.799 5.57781 24.8371 6.34879 24.7895C7.41483 24.7324 8.45231 24.542 9.47076 24.2564C11.0413 23.8186 12.5737 23.257 14.0966 22.6764C18.3227 21.0678 22.2632 18.9262 26.0896 16.5372C28.5262 15.0143 30.9058 13.4057 33.1235 11.5687C34.6369 10.3218 36.1218 9.0273 37.3687 7.50438C38.0064 6.72389 38.606 5.92436 38.9011 4.94399C39.1486 4.13494 39.12 3.35444 38.4632 2.71672C38.054 2.31696 37.5305 2.13611 36.9784 2.05045C36.0932 1.91719 35.208 1.99334 34.3323 2.12659C33.7422 2.21226 33.1711 2.35503 32.5905 2.48829C32.4858 2.50732 32.4001 2.50732 32.3145 2.42166C32.1527 2.25985 31.9718 2.10756 31.7719 1.91719C32.4192 1.73635 33.0283 1.56502 33.6375 1.40321C34.7321 1.11766 35.8457 0.889226 36.9689 0.765489C38.1872 0.622716 39.4055 0.54657 40.6239 0.803562C41.0236 0.889226 41.4044 1.01296 41.7565 1.22236C42.499 1.6602 42.8131 2.45021 42.6132 3.39252C42.3657 4.61085 41.7375 5.64833 41.0427 6.64775C39.7482 8.49428 38.1777 10.1029 36.5025 11.6067C33.5138 14.2814 30.2871 16.6324 26.8796 18.7264C22.8534 21.2106 18.6558 23.3522 14.2299 25.0465C12.2025 25.8174 10.1466 26.4837 8.01448 26.9501C6.44397 27.2928 4.85443 27.5307 3.24585 27.4641C2.45584 27.4355 1.68486 27.3213 0.980516 26.9215C0.228577 26.5027 -0.10456 25.7603 0.0286949 24.9132C0.209541 23.771 0.742561 22.7906 1.37076 21.8483C2.56054 20.0589 4.03586 18.517 5.62541 17.0036V17.0131Z" fill="#D60A3D"/>
<path d="M21.5208 0.0230522C24.3382 0.0706432 26.9367 0.851137 29.2781 2.43116C29.4114 2.51682 29.4399 2.56442 29.3352 2.70719C28.2026 4.19203 27.0794 5.68639 25.9563 7.18075C25.8516 7.314 25.7945 7.33304 25.6517 7.22834C23.8718 5.93386 21.9586 4.87734 19.9027 4.07781C19.7123 4.00167 19.6647 3.93504 19.7504 3.73516C20.1978 2.60249 20.5214 1.43175 20.7022 0.222935C20.7213 0.0896797 20.7689 -0.00550246 20.9402 0.013534C21.1305 0.0325704 21.3209 0.013534 21.5113 0.013534L21.5208 0.0230522Z" fill="white"/>
<path d="M19.3126 4.95349C19.3602 4.97253 19.4078 4.99156 19.4554 5.0106C21.4351 5.79109 23.2912 6.80002 25.0235 8.03739C25.1568 8.13257 25.2139 8.18968 25.0901 8.35149C23.8623 9.96007 22.644 11.5782 21.4256 13.2058C21.3114 13.3581 21.2543 13.3581 21.1115 13.2439C19.6172 12.1112 18.1133 10.9785 16.6094 9.85537C16.4762 9.76019 16.4952 9.69356 16.5809 9.58886C17.5993 8.18968 18.4655 6.70484 19.1793 5.13434C19.2555 4.96301 19.265 4.95349 19.3126 4.95349Z" fill="white"/>
<path d="M16.7522 19.3926C16.6951 19.3545 16.6475 19.3164 16.6094 19.2783C15.9526 18.7644 15.334 18.2218 14.7343 17.6507C13.792 16.7465 12.9258 15.7852 12.1358 14.7477C12.0311 14.6144 12.0121 14.5573 12.1549 14.4431C13.4779 13.3199 14.6677 12.0731 15.7432 10.7024C15.8479 10.5692 15.905 10.5787 16.0288 10.6644C17.5231 11.797 19.027 12.9297 20.5214 14.0528C20.6356 14.1385 20.6927 14.1861 20.5785 14.3289C19.3506 15.947 18.1228 17.5746 16.9045 19.2022C16.8569 19.2593 16.8093 19.3164 16.7617 19.3735L16.7522 19.3926Z" fill="white"/>
<path d="M34.2943 8.45617C34.2943 8.56087 34.2086 8.59894 34.1515 8.64653C33.1711 9.5698 32.1241 10.4264 31.0581 11.2545C30.8868 11.3878 30.7154 11.6162 30.5441 11.6162C30.3728 11.6162 30.2586 11.3307 30.1158 11.1784C29.0973 10.0552 27.9932 9.01774 26.7939 8.09448C26.6892 8.00881 26.6702 7.9517 26.7559 7.83749C27.898 6.32409 29.0402 4.82021 30.1729 3.2973C30.2395 3.21163 30.2776 3.17356 30.3823 3.25922C32.067 4.67744 33.371 6.3812 34.2657 8.38954C34.2752 8.40858 34.2848 8.43713 34.2943 8.45617Z" fill="white"/>
<path d="M16.1145 20.1827C15.0675 20.6491 14.0585 21.0774 13.0306 21.4771C12.1359 21.8198 11.2221 22.1339 10.3084 22.4385C10.137 22.4956 10.0514 22.4575 9.95618 22.3148C8.93774 20.868 8.1858 19.2975 7.75748 17.5747C7.7194 17.4319 7.7194 17.3558 7.86218 17.2891C8.98533 16.7656 10.0418 16.1279 11.0317 15.3665C11.1364 15.2808 11.2031 15.2427 11.3173 15.3855C12.6689 17.1654 14.2394 18.7454 16.0002 20.1256C16.0288 20.1446 16.0574 20.1636 16.1145 20.1922V20.1827Z" fill="white"/>
<path d="M29.6969 12.2635C29.6398 12.3111 29.5922 12.3587 29.5447 12.3873C28.0789 13.4343 26.5845 14.4432 25.0425 15.376C24.8427 15.4997 24.6523 15.7281 24.4524 15.6996C24.2525 15.6806 24.0717 15.4616 23.8908 15.3189C23.3578 14.9191 22.8248 14.5098 22.2823 14.11C22.168 14.0244 22.1205 13.9673 22.2252 13.8245C23.453 12.2064 24.6809 10.5788 25.8992 8.95118C25.9944 8.81792 26.061 8.78937 26.1942 8.90358C27.4126 9.87444 28.5548 10.931 29.5732 12.1207C29.6113 12.1683 29.6494 12.2064 29.6874 12.2635H29.6969Z" fill="white"/>
<path d="M11.4125 13.7293C11.0222 13.1486 10.67 12.5395 10.375 11.9113C9.92762 10.9785 9.58496 10.0171 9.44219 8.98918C9.31845 8.04688 9.37556 7.11409 9.78484 6.2289C9.85147 6.08613 9.89906 6.06709 10.0228 6.17179C11.6028 7.37109 13.1828 8.56086 14.7724 9.76016C15.0294 9.95052 15.0294 9.95052 14.8295 10.2075C13.8301 11.483 12.6974 12.6251 11.4791 13.6912C11.46 13.7102 11.441 13.7197 11.4029 13.7388L11.4125 13.7293Z" fill="white"/>
<path d="M15.6576 9.13199C14.9247 8.57993 14.1918 8.01836 13.4589 7.4663C12.5166 6.76195 11.5838 6.04808 10.6415 5.35326C10.4988 5.24855 10.5273 5.20096 10.6415 5.10578C11.3268 4.50613 12.1454 4.19203 13.0306 4.04926C14.782 3.76371 16.4857 4.07781 18.1609 4.55373C18.2847 4.5918 18.3037 4.62987 18.2466 4.76313C17.5327 6.30508 16.6761 7.75184 15.6671 9.1415L15.6576 9.13199Z" fill="white"/>
<path d="M27.108 25.9411C25.9373 25.8935 24.7665 25.5414 23.6434 25.0179C22.8914 24.6657 22.1871 24.2564 21.4923 23.8091C21.359 23.7234 21.3495 23.6568 21.4637 23.5616C21.5399 23.495 21.6255 23.4474 21.7112 23.4093C23.1484 22.7049 24.5286 21.9054 25.9182 21.1059C26.0991 21.0012 26.1657 21.0297 26.2799 21.1916C27.2603 22.5527 28.2407 23.9138 29.2401 25.2653C29.3734 25.4462 29.3448 25.4938 29.1449 25.5794C28.5072 25.8555 27.8504 25.9411 27.0985 25.9602L27.108 25.9411Z" fill="white"/>
<path d="M31.3436 17.6793C31.6482 19.0785 31.8196 20.4872 31.6006 21.9244C31.4483 22.9429 31.1057 23.8852 30.4013 24.6657C30.2871 24.7989 30.2395 24.7799 30.1348 24.6467C29.1449 23.276 28.155 21.9149 27.1556 20.5538C27.089 20.4682 27.0509 20.4015 27.1842 20.3254C28.5929 19.4973 29.9445 18.574 31.3056 17.6698C31.3056 17.6698 31.3246 17.6698 31.3436 17.6698V17.6793Z" fill="white"/>
<path d="M18.5511 27.7591C18.6749 27.4354 18.8462 27.1594 19.0175 26.8739C19.4649 26.1029 19.9694 25.37 20.5214 24.6656C20.6166 24.5419 20.6737 24.5229 20.8165 24.6181C22.368 25.7412 24.0812 26.4836 25.9658 26.8548C26.1467 26.8929 26.318 26.9119 26.4989 26.9691C23.9385 27.997 21.2924 28.2159 18.5607 27.7686L18.5511 27.7591Z" fill="white"/>
<path d="M32.5905 22.5907C32.6191 22.1529 32.6857 21.7912 32.7143 21.42C32.8094 20.2587 32.7428 19.107 32.5334 17.9648C32.4763 17.6698 32.4192 17.3842 32.3431 17.0987C32.3145 16.994 32.3431 16.9559 32.4097 16.8988C32.9903 16.4705 33.5519 16.0231 34.142 15.6043C34.418 15.4044 34.7892 15.4235 35.1129 15.3378C35.2366 15.3093 35.3794 15.3188 35.5031 15.2712C35.7125 15.195 35.7696 15.2426 35.7506 15.4711C35.6364 16.5847 35.3032 17.6412 34.9035 18.6787C34.3514 20.0779 33.5899 21.3533 32.6 22.5907H32.5905Z" fill="white"/>
<path d="M12.6974 3.0593C14.1918 1.78386 16.8474 0.432272 19.7124 0.137207C19.5982 0.860591 19.4268 1.56494 19.2079 2.25977C19.0842 2.66905 18.9224 3.0593 18.7796 3.46858C18.732 3.61136 18.6939 3.65895 18.5226 3.60184C16.9806 3.0593 15.3816 2.87845 13.7444 2.9546C13.4018 2.97363 13.0591 3.02123 12.6879 3.0593H12.6974Z" fill="white"/>
<path d="M7.49096 16.3372C7.09119 13.7388 7.37674 11.2355 8.36663 8.7417C8.42374 9.02725 8.46181 9.25568 8.50941 9.48412C8.83302 11.2069 9.4993 12.7869 10.4987 14.2242C10.5558 14.3099 10.632 14.3765 10.4987 14.4812C9.56593 15.195 8.57603 15.8137 7.49096 16.3372Z" fill="white"/>
<path d="M33.6566 3.82082C34.6655 3.63045 35.6268 3.43057 36.6167 3.54479C36.6738 3.54479 36.7309 3.54479 36.788 3.56382C37.4924 3.71612 37.6257 3.94455 37.3877 4.62986C37.1212 5.37228 36.6358 5.98145 36.1503 6.59062C36.0551 6.71435 35.9409 6.82857 35.8457 6.95231C35.7696 7.04749 35.7315 7.03797 35.6744 6.93327C35.5602 6.70483 35.4365 6.4764 35.3127 6.25748C34.8939 5.47699 34.3704 4.76312 33.8279 4.05877C33.7803 3.99214 33.7327 3.92552 33.6566 3.83033V3.82082Z" fill="#D60A3D"/>
<path d="M6.32974 19.5925C6.48204 19.9542 6.61529 20.2874 6.76758 20.6205C7.0912 21.3724 7.50048 22.0863 7.93832 22.7716C8.09061 23.0096 8.09061 23.0191 7.8241 23.0667C6.9865 23.2095 6.1489 23.3522 5.29226 23.2475C4.46417 23.1428 4.28333 22.8668 4.58791 22.0958C4.90201 21.2868 5.44455 20.63 5.99661 19.9828C6.10131 19.859 6.20601 19.7448 6.32974 19.5925Z" fill="#D60A3D"/>
<path d="M18.2751 19.088C18.8747 18.298 19.4649 17.4985 20.0645 16.7084C20.5119 16.1183 20.9497 15.5377 21.3971 14.9476C21.4446 14.8905 21.4637 14.7858 21.5779 14.8714C22.2061 15.3473 22.8438 15.8233 23.5006 16.3182C21.7873 17.3271 20.0645 18.2599 18.2751 19.088Z" fill="white"/>
<path d="M19.1127 24.6847C19.1698 24.7894 19.0651 24.8275 19.027 24.8846C18.475 25.6746 17.98 26.4836 17.5708 27.3498C17.5136 27.4735 17.4661 27.5306 17.2947 27.483C16.5047 27.2356 15.7052 26.9881 14.9532 26.6264C14.8866 26.5979 14.8105 26.5883 14.7724 26.4932C16.2477 25.9506 17.6659 25.2843 19.1127 24.6847Z" fill="white"/>
<path d="M19.1223 24.6848C19.1223 24.6848 19.1413 24.6658 19.1508 24.6562C19.1508 24.6658 19.1508 24.6753 19.1508 24.6848C19.1413 24.6848 19.1318 24.6848 19.1223 24.6753V24.6848Z" fill="white"/>
</svg>
