<svg width="64" height="77" viewBox="0 0 64 77" fill="none" xmlns="http://www.w3.org/2000/svg">
<path d="M2.50168 38.1854H12.5084C13.2206 38.1854 13.8155 38.424 14.2934 38.9013C14.7712 39.3785 15.0101 39.9728 15.0101 40.6841C15.0101 41.3954 14.7712 41.9897 14.2934 42.4669C13.8155 42.9442 13.2206 43.1828 12.5084 43.1828H2.50168C1.78954 43.1828 1.19455 42.9442 0.716733 42.4669C0.238911 41.9897 0 41.3954 0 40.6841C0 39.9728 0.238911 39.3785 0.716733 38.9013C1.19455 38.424 1.78954 38.1854 2.50168 38.1854ZM13.5091 66.1324L20.475 59.1747C20.9629 58.6874 21.537 58.4326 22.1974 58.4101C22.8579 58.3884 23.4641 58.6433 24.0162 59.1747C24.5682 59.7261 24.8488 60.3203 24.858 60.9575C24.868 61.5947 24.597 62.189 24.0449 62.7404L17.079 69.6981C16.5912 70.1853 16.012 70.4402 15.3416 70.4627C14.672 70.4852 14.0611 70.2207 13.5091 69.6693C12.9771 69.1179 12.706 68.5287 12.696 67.9015C12.686 67.2735 12.9571 66.6838 13.5091 66.1324ZM20.475 22.1935L13.5091 15.2358C13.0213 14.7486 12.7661 14.1751 12.7436 13.5154C12.7219 12.8558 12.9771 12.2503 13.5091 11.6989C14.0611 11.1475 14.6561 10.8672 15.294 10.8581C15.932 10.8481 16.527 11.1188 17.079 11.6701L24.0449 18.6278C24.5328 19.1151 24.7879 19.6935 24.8104 20.3632C24.833 21.032 24.5682 21.6421 24.0162 22.1935C23.4641 22.7249 22.8741 22.9956 22.2462 23.0056C21.6175 23.0156 21.0271 22.7449 20.475 22.1935ZM72.4137 75.7237L52.6317 55.9651L49.9373 64.3258C49.7706 64.7806 49.5058 65.1379 49.1431 65.3978C48.7812 65.6568 48.3821 65.7863 47.946 65.7863C47.5099 65.7863 47.1267 65.6518 46.7965 65.3828C46.4654 65.1137 46.2165 64.7518 46.0497 64.2971L38.5647 39.7133C38.3979 39.1111 38.3867 38.5731 38.5309 38.0992C38.6752 37.6252 38.9558 37.1801 39.3727 36.7636C39.7897 36.3471 40.2354 36.0665 40.7099 35.9215C41.1844 35.7774 41.7231 35.7887 42.326 35.9553L67.5742 43.5289C68.0295 43.6955 68.3873 43.9437 68.6474 44.2735C68.9068 44.6034 69.0364 44.9861 69.0364 45.4217C69.0364 45.8573 68.9276 46.2404 68.71 46.5711C68.4915 46.9009 68.1546 47.1491 67.6993 47.3157L59.0397 50.4479L77.995 69.3807C78.803 70.1878 79.207 71.1298 79.207 72.2068C79.207 73.2829 78.803 74.2245 77.995 75.0316L77.302 75.7237C76.6224 76.4034 75.8077 76.7432 74.8579 76.7432C73.9089 76.7432 73.0942 76.4034 72.4137 75.7237ZM62.1668 18.6278L69.1615 11.6414C69.6302 11.1733 70.1997 10.9184 70.8702 10.8768C71.5406 10.8351 72.1514 11.09 72.7027 11.6414C73.2355 12.1728 73.5065 12.7575 73.5157 13.3955C73.5257 14.0327 73.2643 14.627 72.7314 15.1783L65.7367 22.1935C65.2681 22.6808 64.6985 22.9356 64.0281 22.9581C63.3585 22.9798 62.7476 22.7249 62.1956 22.1935C61.6444 21.6421 61.3638 21.0479 61.3538 20.4107C61.3438 19.7735 61.6148 19.1792 62.1668 18.6278Z" fill="#1D2126"/>
<path d="M24.358 60.9647L24.358 60.9654C24.3655 61.4378 24.1708 61.908 23.6916 62.3866L16.7256 69.3443C16.3247 69.7448 15.8648 69.9448 15.3248 69.963C14.8176 69.98 14.3364 69.7876 13.8656 69.3187C13.4034 68.8385 13.2035 68.3661 13.196 67.8935C13.1886 67.4323 13.3815 66.9665 13.8624 66.4861L20.8284 59.5284C21.2307 59.1265 21.6861 58.9279 22.2138 58.9098C22.7164 58.8933 23.1955 59.08 23.666 59.5317C24.1455 60.0118 24.3511 60.4868 24.358 60.9647ZM15.3012 11.358L15.3019 11.358C15.7754 11.3506 16.2465 11.5453 16.7256 12.0239L23.6916 18.9816C24.0925 19.3821 24.2926 19.8412 24.3107 20.38C24.3278 20.886 24.1355 21.3663 23.6661 21.8365C23.1852 22.2982 22.712 22.4981 22.2383 22.5057C21.7759 22.513 21.3092 22.32 20.8284 21.8398L13.8624 14.8821C13.46 14.4801 13.2613 14.0253 13.2433 13.4986C13.2269 12.9973 13.4136 12.5193 13.8657 12.0493C14.3464 11.5705 14.8222 11.3649 15.3012 11.358ZM52.985 55.6113L52.4065 55.0335L52.1558 55.8117L49.4646 64.1625C49.3293 64.5269 49.1239 64.7964 48.852 64.9912C48.5732 65.1908 48.2755 65.2863 47.946 65.2863C47.6219 65.2863 47.351 65.1896 47.1123 64.9951L47.1118 64.9947C46.8625 64.7921 46.6636 64.5131 46.5238 64.1375L39.0449 39.5739C38.8985 39.0421 38.8994 38.6055 39.0093 38.2448L38.5309 38.0992L39.0093 38.2448C39.1254 37.8631 39.3563 37.4867 39.7261 37.1174C40.0957 36.7481 40.4726 36.517 40.8552 36.4C41.2169 36.2901 41.6547 36.2893 42.1877 36.4358L67.4158 44.0034C67.7905 44.1427 68.0622 44.3392 68.2544 44.5826C68.4416 44.8207 68.5364 45.0935 68.5364 45.4217C68.5364 45.7697 68.4509 46.0551 68.2924 46.296C68.1453 46.5177 67.9056 46.7076 67.5288 46.8457C67.5284 46.8458 67.5279 46.846 67.5275 46.8462L58.8696 49.9777L58.1295 50.2454L58.6864 50.8016L77.6416 69.7345C78.3621 70.4541 78.707 71.2712 78.707 72.2068C78.707 73.1414 78.3622 73.9582 77.6416 74.6778L76.9487 75.37L76.9484 75.3702C76.3613 75.9573 75.6733 76.2432 74.8579 76.2432C74.0434 76.2432 73.3552 75.9574 72.7671 75.37L52.985 55.6113ZM72.349 11.9949L72.3496 11.9954C72.8079 12.4525 73.0088 12.9181 73.0158 13.4027L73.0158 13.4034C73.0233 13.881 72.8335 14.3522 72.3746 14.8281C72.3737 14.829 72.3728 14.83 72.3719 14.8309L65.3826 21.8405L65.3826 21.8404L65.3764 21.8469C64.9973 22.2411 64.5508 22.4402 64.0117 22.4584C63.498 22.475 63.0147 22.2867 62.5458 21.8366C62.0671 21.3565 61.8612 20.8812 61.8537 20.4028C61.8463 19.9304 62.041 19.4602 62.5202 18.9816L69.5149 11.9952C69.896 11.6145 70.3504 11.41 70.9012 11.3758C71.4049 11.3445 71.8812 11.527 72.349 11.9949ZM2.50168 38.6854H12.5084C13.0961 38.6854 13.5615 38.8769 13.94 39.255C14.3185 39.6331 14.5101 40.0976 14.5101 40.6841C14.5101 41.2706 14.3185 41.7351 13.94 42.1132C13.5615 42.4913 13.0961 42.6828 12.5084 42.6828H2.50168C1.91402 42.6828 1.44862 42.4913 1.07008 42.1132C0.691569 41.7351 0.5 41.2706 0.5 40.6841C0.5 40.0976 0.69157 39.6331 1.07008 39.255C1.44862 38.8769 1.91402 38.6854 2.50168 38.6854Z" stroke="white" stroke-opacity="0.3"/>
<path d="M44.5371 14.6266L44.5368 14.6269C44.1581 15.0051 43.6931 15.1966 43.1064 15.1966C42.5188 15.1966 42.0533 15.005 41.6748 14.6269C41.2963 14.2489 41.1047 13.7843 41.1047 13.1979V3.20295C41.1047 2.61649 41.2963 2.15193 41.6748 1.77387C42.0533 1.39578 42.5188 1.20422 43.1064 1.20422C43.6931 1.20422 44.1581 1.39566 44.5368 1.77387L44.5371 1.77418C44.9163 2.1523 45.1081 2.61677 45.1081 3.20295V13.1979C45.1081 13.784 44.9163 14.2485 44.5371 14.6266Z" fill="#1D2126" stroke="#D60A3D"/>
</svg>
