<svg width="7" height="12" viewBox="0 0 7 12" fill="none" xmlns="http://www.w3.org/2000/svg">
<path d="M4.94625 6L0.872997 1.927C0.734663 1.7885 0.66383 1.61441 0.660497 1.40475C0.65733 1.19525 0.728163 1.018 0.872997 0.872997C1.018 0.728163 1.19366 0.655746 1.4 0.655746C1.60633 0.655746 1.782 0.728163 1.927 0.872997L6.42125 5.36725C6.51475 5.46091 6.58075 5.55966 6.61925 5.6635C6.65775 5.76733 6.677 5.8795 6.677 6C6.677 6.1205 6.65775 6.23266 6.61925 6.3365C6.58075 6.44033 6.51475 6.53908 6.42125 6.63275L1.927 11.127C1.7885 11.2653 1.61441 11.3362 1.40475 11.3395C1.19525 11.3427 1.018 11.2718 0.872997 11.127C0.728163 10.982 0.655746 10.8063 0.655746 10.6C0.655746 10.3937 0.728163 10.218 0.872997 10.073L4.94625 6Z" fill="#15181C"/>
</svg>
