<svg width="22" height="22" viewBox="0 0 22 22" fill="none" xmlns="http://www.w3.org/2000/svg">
<path d="M9.13963 5.11221L9.69169 6.64534C10.3049 8.3469 11.6449 9.68684 13.3464 10.3001L14.8796 10.8521C15.0178 10.9023 15.0178 11.0983 14.8796 11.1478L13.3464 11.6998C11.6449 12.3131 10.3049 13.653 9.69169 15.3546L9.13963 16.8877C9.08944 17.0259 8.89351 17.0259 8.84401 16.8877L8.29194 15.3546C7.67869 13.653 6.33876 12.3131 4.63719 11.6998L3.10407 11.1478C2.96588 11.0976 2.96588 10.9017 3.10407 10.8521L4.63719 10.3001C6.33876 9.68684 7.67869 8.3469 8.29194 6.64534L8.84401 5.11221C8.89351 4.97334 9.08944 4.97334 9.13963 5.11221Z" fill="#D60A3D"/>
<path d="M16.0408 1.42793L16.3206 2.20411C16.6313 3.06555 17.3099 3.74411 18.1713 4.05486L18.9475 4.33468C19.0176 4.36011 19.0176 4.45911 18.9475 4.48455L18.1713 4.76436C17.3099 5.07511 16.6313 5.75368 16.3206 6.61511L16.0408 7.3913C16.0153 7.46143 15.9163 7.46143 15.8909 7.3913L15.6111 6.61511C15.3003 5.75368 14.6218 5.07511 13.7603 4.76436L12.9841 4.48455C12.914 4.45911 12.914 4.36011 12.9841 4.33468L13.7603 4.05486C14.6218 3.74411 15.3003 3.06555 15.6111 2.20411L15.8909 1.42793C15.9163 1.35711 16.016 1.35711 16.0408 1.42793Z" fill="#D60A3D"/>
<path d="M16.0408 14.6094L16.3206 15.3855C16.6313 16.247 17.3099 16.9255 18.1713 17.2363L18.9475 17.5161C19.0176 17.5415 19.0176 17.6405 18.9475 17.666L18.1713 17.9458C17.3099 18.2565 16.6313 18.9351 16.3206 19.7965L16.0408 20.5727C16.0153 20.6429 15.9163 20.6429 15.8909 20.5727L15.6111 19.7965C15.3003 18.9351 14.6218 18.2565 13.7603 17.9458L12.9841 17.666C12.914 17.6405 12.914 17.5415 12.9841 17.5161L13.7603 17.2363C14.6218 16.9255 15.3003 16.247 15.6111 15.3855L15.8909 14.6094C15.9163 14.5392 16.016 14.5392 16.0408 14.6094Z" fill="#D60A3D"/>
</svg>
