<svg width="370" height="159" viewBox="0 0 370 159" fill="none" xmlns="http://www.w3.org/2000/svg">
<g opacity="0.2" clip-path="url(#clip0_1_34967)">
<path d="M206.667 98.184C205.804 94.3388 203.459 85.9477 201.6 79.4702L202.606 79.1827L200.324 71.142C199.848 69.462 198.293 68.3929 196.622 68.4468C195.059 67.7101 193.019 66.7578 191.501 66.066C191.402 63.1462 191.384 60.2174 191.429 57.2976C192.139 57.0101 192.848 56.2644 193.298 55.2402C193.612 54.5125 193.729 53.7938 193.684 53.1739C194.25 51.7544 194.151 50.3169 194.151 50.3169C196.379 47.6397 194.582 44.0101 194.582 44.0101C197.224 40.704 198.671 28.9798 187.296 25.9612C175.921 22.9425 170.827 31.8188 170.827 31.8188C170.827 31.8188 168.131 31.6571 166.415 34.0828C164.69 36.5085 166.415 39.4732 166.415 39.4732C162.381 43.4621 167.871 50.6763 167.871 50.6763C166.649 53.8926 169.057 55.5007 170.692 56.1925C171.087 56.7316 171.564 57.1179 172.031 57.2976C172.076 60.2174 172.058 63.1372 171.959 66.057C170.441 66.7488 168.401 67.7011 166.838 68.4378C165.166 68.3839 163.612 69.453 163.136 71.133L160.854 79.1737L161.86 79.4612C160.009 85.9387 157.655 94.3298 156.793 98.175C155.697 103.08 157.413 105.084 159.048 105.91C159.722 106.252 160.449 106.404 161.213 106.404C162.345 106.404 163.603 105.946 164.897 105.192C164.951 112.109 164.987 119.108 164.987 125.244C164.987 125.244 165.023 125.262 165.068 125.28L164.708 136.42L163.414 176.543V209.811H162.013V214.447H164.825L162.013 231.903C162.013 231.903 164.538 233.735 168.949 233.735C173.585 233.735 177.314 231.795 177.314 231.795L174.771 214.447H177.314V209.811H176.703L177.511 178.412L181.707 144.039L185.939 178.681L186.748 210.08H186.137V214.716H188.644L186.981 226.063L186.622 228.516L186.137 231.795C186.137 231.795 189.865 233.735 194.502 233.735C199.138 233.735 201.438 231.903 201.438 231.903L198.671 214.716H201.438V210.08H200.036V176.812L198.383 125.504H197.853C198.248 125.334 198.473 125.235 198.473 125.235C198.473 119.099 198.509 112.1 198.563 105.183C199.865 105.937 201.114 106.395 202.246 106.395C203.01 106.395 203.738 106.243 204.412 105.901C206.047 105.084 207.763 103.071 206.667 98.166V98.184ZM171.842 51.7544C171.842 51.7544 171.842 51.7544 171.851 51.7544C171.851 51.7544 171.851 51.7634 171.851 51.7724C171.851 51.7724 171.851 51.7724 171.842 51.7724V51.7544ZM162.031 100.655C162.058 100.349 162.112 99.9359 162.228 99.3968C162.696 97.2945 163.657 93.6919 164.735 89.8018C164.762 92.5689 164.798 95.4887 164.825 98.4894C163.621 99.6304 162.651 100.421 162.031 100.655ZM198.617 98.4894C198.644 95.4887 198.671 92.5689 198.706 89.8018C199.785 93.6919 200.737 97.2945 201.213 99.3968C201.33 99.9359 201.393 100.34 201.42 100.655C200.8 100.421 199.821 99.6394 198.626 98.4894H198.617Z" fill="#25292E"/>
<path d="M179.281 113.717C177.97 107.851 173.54 92.4791 173.351 91.8233C173.163 91.1674 172.732 90.6553 172.183 90.3499C172.183 90.3499 168.904 88.7148 166.406 87.5738C166.316 84.9774 166.298 82.3721 166.334 79.7757C166.963 79.5151 167.601 78.8593 167.997 77.9519C168.608 76.5594 168.419 75.1219 167.574 74.7536C167.26 74.6188 166.909 74.6458 166.55 74.8075C167.116 73.0197 170.216 62.0501 163.289 57.4772C163.343 56.8573 163.36 56.489 163.36 56.489C162.336 56.1386 161.375 55.8781 160.467 55.6984C161.806 55.0785 162.687 54.0184 162.687 52.8145C162.687 50.9009 160.449 49.3467 157.7 49.3467C154.951 49.3467 152.714 50.9009 152.714 52.8145C152.714 54.0184 153.603 55.0875 154.942 55.7074C144.573 58.3487 146.685 76.8738 146.685 76.8738C146.82 76.8738 146.945 76.8738 147.071 76.8738C147.125 77.2242 147.224 77.5836 147.386 77.9429C147.79 78.8593 148.437 79.5241 149.066 79.7757C149.102 82.3721 149.084 84.9684 148.994 87.5648C146.505 88.7058 143.217 90.3409 143.217 90.3409C143.217 90.3409 143.217 90.3858 143.235 90.4487C142.759 90.7632 142.372 91.2393 142.201 91.8323C142.013 92.4881 137.583 107.86 136.272 113.726C135.301 118.084 136.829 119.871 138.275 120.599C138.877 120.905 139.524 121.039 140.198 121.039C141.51 121.039 142.938 120.527 144.367 119.746C143.953 123.923 143.226 128.191 142.049 132.287C141.59 135.225 141.294 138.459 141.132 141.882C140.045 164.432 144.555 194.906 145.148 198.769H144.582V202.39H146.972C147.197 206.226 147.008 209.838 146.829 211.994C146.784 212.048 146.748 212.084 146.748 212.084C146.748 214.599 142.426 220.682 144.196 222.82C144.196 222.829 144.214 222.838 144.223 222.856C144.286 222.928 144.367 222.999 144.448 223.062C144.475 223.08 144.502 223.098 144.528 223.125C144.6 223.179 144.681 223.224 144.771 223.269C144.807 223.287 144.852 223.305 144.897 223.323C144.987 223.359 145.077 223.395 145.175 223.422C145.229 223.44 145.274 223.449 145.328 223.467C145.436 223.494 145.553 223.511 145.67 223.529C145.723 223.529 145.768 223.547 145.831 223.556C146.011 223.574 146.2 223.583 146.415 223.583H152.839C153.001 223.583 153.154 223.565 153.298 223.538C153.343 223.538 153.387 223.511 153.441 223.503C153.531 223.476 153.621 223.458 153.702 223.422C153.756 223.404 153.801 223.368 153.855 223.35C153.927 223.314 153.989 223.278 154.061 223.233C154.115 223.197 154.16 223.161 154.205 223.125C154.259 223.08 154.313 223.026 154.367 222.972C154.412 222.928 154.457 222.874 154.493 222.829C154.537 222.775 154.582 222.721 154.618 222.658C154.654 222.595 154.699 222.541 154.735 222.478C154.771 222.424 154.798 222.362 154.834 222.299C154.87 222.227 154.906 222.164 154.933 222.092C154.96 222.029 154.978 221.975 155.005 221.903C155.032 221.822 155.068 221.742 155.095 221.652C155.517 220.241 155.391 218.364 155.05 217.079C154.304 214.285 153.513 211.347 153.513 211.329L153.711 202.417H156.218V198.796H155.697V160.587C155.697 150.759 156.11 144.452 157.7 144.452C159.29 144.452 159.704 150.759 159.704 160.587V198.796H159.183V202.417H161.689L161.887 211.329C161.887 211.329 161.096 214.285 160.351 217.079C160.009 218.364 159.883 220.241 160.306 221.652C160.333 221.733 160.36 221.814 160.396 221.885C160.422 221.948 160.44 222.02 160.467 222.074C160.494 222.146 160.53 222.218 160.566 222.281C160.602 222.344 160.629 222.406 160.665 222.469C160.701 222.532 160.737 222.586 160.782 222.649C160.827 222.712 160.863 222.766 160.908 222.82C160.953 222.874 160.989 222.919 161.033 222.963C161.087 223.017 161.141 223.062 161.195 223.116C161.24 223.152 161.285 223.197 161.339 223.224C161.402 223.269 161.474 223.305 161.546 223.341C161.599 223.368 161.644 223.395 161.698 223.413C161.779 223.449 161.869 223.476 161.959 223.494C162.004 223.511 162.049 223.52 162.103 223.529C162.246 223.556 162.399 223.574 162.561 223.574H168.985C169.192 223.574 169.389 223.565 169.569 223.547C169.623 223.547 169.677 223.529 169.731 223.52C169.847 223.503 169.964 223.485 170.072 223.458C170.126 223.44 170.171 223.431 170.225 223.413C170.324 223.386 170.413 223.35 170.503 223.314C170.548 223.296 170.584 223.278 170.629 223.26C170.719 223.215 170.791 223.17 170.872 223.116C170.899 223.098 170.926 223.08 170.953 223.053C171.033 222.99 171.105 222.919 171.177 222.847C171.186 222.838 171.195 222.829 171.213 222.811C172.992 220.673 168.661 214.59 168.661 212.075C168.661 212.075 168.626 212.039 168.581 211.985C168.41 209.829 168.212 206.226 168.437 202.381H170.827V198.76H170.261C170.944 194.313 176.82 154.55 173.351 132.278C172.166 128.146 171.438 123.842 171.024 119.638C172.516 120.473 174.007 121.03 175.364 121.03C176.047 121.03 176.694 120.896 177.287 120.59C178.742 119.862 180.27 118.075 179.29 113.717H179.281ZM140.971 115.919C140.989 115.649 141.042 115.281 141.15 114.804C141.797 111.912 143.28 106.458 144.582 101.76C144.816 105.201 144.951 109.207 144.807 113.466C143.136 114.822 141.797 115.613 140.971 115.919ZM170.611 113.331C170.476 108.938 170.611 104.814 170.872 101.301C172.21 106.099 173.765 111.813 174.43 114.804C174.537 115.281 174.591 115.649 174.609 115.919C173.756 115.595 172.354 114.76 170.611 113.331Z" fill="#363940"/>
<path d="M221.042 119.764C219.731 113.897 215.301 98.5254 215.113 97.8695C214.924 97.2137 214.493 96.7016 213.945 96.3962C213.945 96.3962 210.665 94.7611 208.167 93.6201C208.077 91.0237 208.06 88.4183 208.095 85.8219C208.724 85.5614 209.362 84.9056 209.758 83.9982C210.369 82.6056 210.18 81.1682 209.335 80.7998C209.021 80.6651 208.67 80.692 208.311 80.8537C208.868 79.0659 211.977 68.0964 205.05 63.5235C205.113 62.9036 205.122 62.5353 205.122 62.5353C204.097 62.1849 203.136 61.9243 202.228 61.7447C203.567 61.1248 204.448 60.0647 204.448 58.8608C204.448 56.9472 202.21 55.3929 199.461 55.3929C196.712 55.3929 194.475 56.9472 194.475 58.8608C194.475 60.0647 195.364 61.1338 196.703 61.7537C186.334 64.395 188.446 82.9201 188.446 82.9201C188.581 82.9201 188.706 82.9201 188.832 82.9201C188.886 83.2705 188.985 83.6298 189.147 83.9892C189.551 84.9056 190.198 85.5704 190.836 85.8219C190.872 88.4183 190.854 91.0147 190.764 93.6111C188.275 94.7521 184.987 96.3872 184.987 96.3872C184.987 96.3872 184.987 96.4321 185.005 96.495C184.529 96.8094 184.142 97.2856 183.971 97.8785C183.783 98.5344 179.353 113.906 178.042 119.773C177.071 124.13 178.599 125.918 180.045 126.645C180.647 126.942 181.294 127.086 181.968 127.086C183.28 127.086 184.708 126.574 186.137 125.792C185.723 129.97 184.996 134.237 183.819 138.334C183.361 141.271 183.064 144.506 182.902 147.929C181.815 170.47 186.325 200.953 186.918 204.816H186.352V208.445H188.742C188.967 212.281 188.778 215.893 188.599 218.049C188.554 218.103 188.518 218.139 188.518 218.139C188.518 220.646 184.196 226.737 185.966 228.875C185.966 228.884 185.984 228.893 185.993 228.911C186.056 228.983 186.137 229.055 186.218 229.118C186.245 229.135 186.272 229.153 186.299 229.171C186.37 229.225 186.451 229.27 186.541 229.315C186.577 229.333 186.622 229.36 186.667 229.369C186.757 229.405 186.847 229.441 186.945 229.468C186.99 229.486 187.044 229.495 187.098 229.513C187.206 229.54 187.323 229.558 187.44 229.576C187.493 229.576 187.547 229.594 187.601 229.603C187.781 229.621 187.979 229.63 188.185 229.63H194.609C194.771 229.63 194.924 229.612 195.068 229.585C195.113 229.585 195.157 229.558 195.211 229.549C195.301 229.522 195.391 229.504 195.472 229.459C195.526 229.441 195.571 229.414 195.625 229.387C195.697 229.351 195.759 229.315 195.831 229.27C195.885 229.234 195.93 229.198 195.975 229.162C196.029 229.118 196.083 229.064 196.137 229.01C196.182 228.965 196.227 228.911 196.263 228.866C196.307 228.812 196.352 228.758 196.388 228.695C196.424 228.632 196.469 228.578 196.505 228.516C196.541 228.462 196.568 228.399 196.604 228.336C196.64 228.264 196.676 228.201 196.703 228.129C196.73 228.066 196.748 228.012 196.775 227.941C196.802 227.86 196.838 227.779 196.865 227.689C197.287 226.279 197.161 224.401 196.82 223.116C196.074 220.322 195.283 217.384 195.283 217.375L195.481 208.463H197.988V204.834H197.467V166.624C197.467 156.796 197.88 150.489 199.47 150.489C201.06 150.489 201.474 156.796 201.474 166.624V204.834H200.953V208.463H203.459L203.657 217.375C203.657 217.375 202.866 220.331 202.121 223.116C201.779 224.41 201.653 226.288 202.076 227.689C202.103 227.77 202.13 227.851 202.166 227.932C202.192 227.995 202.21 228.066 202.237 228.12C202.264 228.192 202.3 228.264 202.336 228.327C202.372 228.39 202.399 228.453 202.435 228.516C202.471 228.578 202.507 228.632 202.552 228.695C202.588 228.749 202.633 228.812 202.678 228.866C202.723 228.92 202.759 228.965 202.803 229.01C202.857 229.064 202.911 229.109 202.965 229.162C203.01 229.198 203.055 229.243 203.109 229.27C203.172 229.315 203.244 229.351 203.316 229.387C203.36 229.414 203.414 229.441 203.468 229.459C203.549 229.495 203.639 229.522 203.729 229.549C203.774 229.567 203.819 229.576 203.873 229.585C204.016 229.612 204.169 229.63 204.331 229.63H210.755C210.962 229.63 211.159 229.621 211.339 229.603C211.393 229.603 211.447 229.585 211.501 229.576C211.617 229.558 211.734 229.54 211.842 229.513C211.896 229.495 211.941 229.477 211.995 229.468C212.094 229.441 212.183 229.405 212.273 229.369C212.318 229.351 212.354 229.333 212.399 229.315C212.48 229.27 212.561 229.225 212.633 229.171C212.66 229.153 212.687 229.135 212.714 229.109C212.794 229.046 212.866 228.974 212.938 228.902C212.947 228.893 212.956 228.884 212.974 228.866C214.753 226.728 210.422 220.646 210.422 218.13C210.422 218.13 210.387 218.094 210.342 218.04C210.171 215.884 209.982 212.281 210.198 208.436H212.588V204.807H212.022C212.705 200.36 218.581 160.596 215.113 138.325C213.927 134.192 213.199 129.889 212.785 125.684C214.277 126.52 215.768 127.077 217.125 127.077C217.808 127.077 218.455 126.942 219.048 126.636C220.503 125.909 222.031 124.121 221.051 119.764H221.042ZM182.732 121.965C182.75 121.695 182.803 121.327 182.911 120.851C183.558 117.958 185.041 112.505 186.343 107.806C186.577 111.247 186.712 115.254 186.568 119.512C184.897 120.869 183.558 121.659 182.732 121.965ZM212.363 119.377C212.228 114.984 212.363 110.86 212.624 107.348C213.962 112.145 215.517 117.859 216.182 120.851C216.29 121.327 216.343 121.695 216.361 121.965C215.508 121.641 214.106 120.806 212.363 119.377Z" fill="#575D6A"/>
<path d="M271.788 117.221C270.476 111.355 266.047 95.9829 265.858 95.3271C265.67 94.6712 265.238 94.1591 264.69 93.8537C264.69 93.8537 261.411 92.2186 258.913 91.0776C258.823 88.4812 258.805 85.8758 258.841 83.2794C259.47 83.0189 260.108 82.3631 260.503 81.4557C261.114 80.0632 260.926 78.6257 260.081 78.2574C259.767 78.1226 259.416 78.1496 259.057 78.3113C259.614 76.5234 262.723 65.5539 255.795 60.981C255.858 60.3611 255.867 59.9928 255.867 59.9928C254.843 59.6424 253.882 59.3819 252.974 59.2022C254.313 58.5823 255.193 57.5222 255.193 56.3183C255.193 54.4047 252.956 52.8505 250.207 52.8505C247.458 52.8505 245.22 54.4047 245.22 56.3183C245.22 57.5222 246.11 58.5913 247.449 59.2112C237.08 61.8525 239.192 80.3776 239.192 80.3776C239.326 80.3776 239.452 80.3776 239.578 80.3776C239.632 80.728 239.731 81.0873 239.892 81.4467C240.297 82.3631 240.944 83.0279 241.573 83.2794C241.609 85.8758 241.591 88.4722 241.501 91.0686C239.012 92.2096 235.724 93.8447 235.724 93.8447C235.724 93.8447 235.724 93.8896 235.742 93.9525C235.265 94.2669 234.879 94.7431 234.708 95.336C234.52 95.9919 230.09 111.364 228.778 117.23C227.808 121.587 229.335 123.375 230.782 124.103C231.384 124.408 232.031 124.543 232.705 124.543C234.016 124.543 235.445 124.031 236.874 123.249C236.46 127.427 235.742 131.694 234.556 135.791C234.097 138.729 233.801 141.963 233.639 145.386C232.552 167.936 237.062 198.41 237.655 202.273H237.089V205.903H239.479C239.704 209.739 239.515 213.351 239.335 215.507C239.29 215.561 239.255 215.597 239.255 215.597C239.255 218.112 234.933 224.194 236.703 226.332C236.703 226.341 236.721 226.35 236.73 226.368C236.793 226.44 236.874 226.512 236.954 226.575C236.981 226.593 237.008 226.62 237.035 226.629C237.107 226.683 237.188 226.728 237.278 226.773C237.314 226.791 237.359 226.809 237.404 226.827C237.494 226.863 237.583 226.898 237.682 226.925C237.727 226.943 237.781 226.952 237.835 226.97C237.943 226.997 238.06 227.015 238.176 227.033C238.23 227.033 238.284 227.051 238.338 227.06C238.518 227.078 238.706 227.087 238.922 227.087H245.346C245.508 227.087 245.661 227.069 245.804 227.042C245.849 227.042 245.894 227.015 245.948 227.006C246.038 226.979 246.128 226.961 246.209 226.916C246.263 226.898 246.308 226.872 246.361 226.845C246.433 226.809 246.496 226.773 246.568 226.728C246.622 226.692 246.667 226.656 246.712 226.62C246.766 226.575 246.82 226.521 246.874 226.467C246.919 226.422 246.963 226.368 246.999 226.324C247.044 226.27 247.089 226.216 247.125 226.153C247.161 226.09 247.206 226.036 247.242 225.973C247.278 225.919 247.305 225.856 247.341 225.793C247.377 225.722 247.413 225.659 247.44 225.587C247.467 225.524 247.485 225.47 247.512 225.398C247.538 225.317 247.574 225.236 247.601 225.147C248.024 223.736 247.898 221.858 247.556 220.574C246.811 217.78 246.02 214.842 246.02 214.833L246.218 205.921H248.724V202.291H248.203V164.082C248.203 154.253 248.617 147.947 250.207 147.947C251.797 147.947 252.211 154.253 252.211 164.082V202.291H251.689V205.921H254.196L254.394 214.833C254.394 214.833 253.603 217.789 252.857 220.574C252.516 221.867 252.39 223.745 252.813 225.147C252.839 225.227 252.866 225.308 252.902 225.389C252.929 225.452 252.947 225.524 252.974 225.578C253.001 225.65 253.037 225.722 253.073 225.784C253.109 225.847 253.136 225.91 253.172 225.973C253.208 226.036 253.244 226.09 253.289 226.153C253.325 226.207 253.37 226.27 253.414 226.324C253.459 226.377 253.495 226.422 253.54 226.467C253.594 226.521 253.648 226.566 253.702 226.62C253.747 226.656 253.792 226.701 253.846 226.728C253.909 226.773 253.981 226.809 254.052 226.845C254.097 226.872 254.151 226.898 254.205 226.916C254.286 226.952 254.376 226.979 254.466 227.006C254.511 227.024 254.556 227.033 254.609 227.042C254.753 227.069 254.906 227.087 255.068 227.087H261.492C261.698 227.087 261.896 227.078 262.076 227.06C262.13 227.06 262.184 227.042 262.237 227.033C262.354 227.015 262.471 226.997 262.579 226.97C262.633 226.952 262.678 226.934 262.732 226.925C262.83 226.898 262.92 226.863 263.01 226.827C263.055 226.809 263.091 226.791 263.136 226.773C263.217 226.728 263.298 226.683 263.37 226.629C263.397 226.611 263.423 226.593 263.45 226.566C263.531 226.503 263.603 226.431 263.675 226.359C263.684 226.35 263.693 226.341 263.711 226.324C265.49 224.185 261.159 218.103 261.159 215.588C261.159 215.588 261.123 215.552 261.078 215.498C260.908 213.342 260.719 209.739 260.935 205.894H263.325V202.264H262.759C263.441 197.817 269.317 158.054 265.849 135.782C264.663 131.65 263.936 127.346 263.522 123.142C265.014 123.977 266.505 124.534 267.862 124.534C268.545 124.534 269.192 124.399 269.785 124.094C271.24 123.366 272.768 121.578 271.788 117.221ZM233.477 119.422C233.495 119.153 233.549 118.784 233.657 118.308C234.304 115.415 235.786 109.962 237.089 105.263C237.323 108.704 237.458 112.711 237.314 116.97C235.643 118.326 234.304 119.117 233.477 119.422ZM263.109 116.826C262.974 112.433 263.109 108.309 263.37 104.796C264.708 109.594 266.263 115.308 266.928 118.299C267.035 118.775 267.089 119.144 267.107 119.413C266.254 119.09 264.852 118.254 263.109 116.826Z" fill="#25292E"/>
<path d="M313.199 119.764C311.887 113.897 307.458 98.5254 307.269 97.8695C307.08 97.2137 306.649 96.7016 306.101 96.3962C306.101 96.3962 302.822 94.7611 300.324 93.6201C300.234 91.0237 300.216 88.4183 300.252 85.8219C300.881 85.5614 301.519 84.9056 301.914 83.9982C302.525 82.6056 302.336 81.1682 301.492 80.7998C301.177 80.6651 300.827 80.692 300.468 80.8537C301.025 79.0659 304.133 68.0964 297.206 63.5235C297.269 62.9036 297.278 62.5353 297.278 62.5353C296.254 62.1849 295.292 61.9243 294.385 61.7447C295.724 61.1248 296.604 60.0647 296.604 58.8608C296.604 56.9472 294.367 55.3929 291.618 55.3929C288.868 55.3929 286.631 56.9472 286.631 58.8608C286.631 60.0647 287.521 61.1338 288.859 61.7537C278.491 64.395 280.602 82.9201 280.602 82.9201C280.737 82.9201 280.863 82.9201 280.989 82.9201C281.043 83.2705 281.141 83.6298 281.303 83.9892C281.707 84.9056 282.354 85.5704 282.983 85.8219C283.019 88.4183 283.001 91.0147 282.911 93.6111C280.423 94.7521 277.134 96.3872 277.134 96.3872C277.134 96.3872 277.134 96.4321 277.152 96.495C276.676 96.8094 276.29 97.2856 276.119 97.8785C275.93 98.5344 271.501 113.906 270.189 119.773C269.219 124.13 270.746 125.918 272.193 126.645C272.795 126.942 273.441 127.086 274.115 127.086C275.427 127.086 276.856 126.574 278.284 125.792C277.871 129.97 277.152 134.237 275.966 138.334C275.508 141.271 275.211 144.506 275.05 147.929C273.963 170.47 278.473 200.953 279.066 204.816H278.5V208.445H280.89C281.114 212.281 280.926 215.893 280.746 218.049C280.701 218.103 280.665 218.139 280.665 218.139C280.665 220.646 276.344 226.737 278.114 228.875C278.114 228.884 278.132 228.893 278.14 228.911C278.203 228.983 278.284 229.055 278.365 229.118C278.392 229.135 278.419 229.153 278.446 229.171C278.518 229.225 278.599 229.27 278.689 229.315C278.724 229.333 278.769 229.36 278.814 229.369C278.904 229.405 278.994 229.441 279.093 229.468C279.138 229.486 279.192 229.495 279.246 229.513C279.353 229.54 279.47 229.558 279.587 229.576C279.641 229.576 279.695 229.594 279.749 229.603C279.928 229.621 280.126 229.63 280.333 229.63H286.757C286.919 229.63 287.071 229.612 287.215 229.585C287.26 229.585 287.305 229.558 287.359 229.549C287.449 229.522 287.539 229.504 287.619 229.459C287.673 229.441 287.718 229.414 287.772 229.387C287.844 229.351 287.907 229.315 287.979 229.27C288.033 229.234 288.078 229.198 288.123 229.162C288.176 229.118 288.23 229.064 288.284 229.01C288.329 228.965 288.374 228.911 288.41 228.866C288.455 228.812 288.5 228.758 288.536 228.695C288.572 228.632 288.617 228.578 288.653 228.516C288.689 228.462 288.716 228.399 288.751 228.336C288.787 228.264 288.823 228.201 288.85 228.129C288.877 228.066 288.895 228.012 288.922 227.941C288.949 227.86 288.985 227.779 289.012 227.689C289.434 226.279 289.308 224.401 288.967 223.116C288.221 220.322 287.431 217.384 287.431 217.375L287.628 208.463H290.135V204.834H289.614V166.624C289.614 156.796 290.027 150.489 291.618 150.489C293.208 150.489 293.621 156.796 293.621 166.624V204.834H293.1V208.463H295.607L295.804 217.375C295.804 217.375 295.014 220.331 294.268 223.116C293.927 224.41 293.801 226.288 294.223 227.689C294.25 227.77 294.277 227.851 294.313 227.932C294.34 227.995 294.358 228.066 294.385 228.12C294.412 228.192 294.448 228.264 294.484 228.327C294.52 228.39 294.547 228.453 294.583 228.516C294.618 228.578 294.654 228.632 294.699 228.695C294.735 228.749 294.78 228.812 294.825 228.866C294.87 228.92 294.906 228.965 294.951 229.01C295.005 229.064 295.059 229.109 295.113 229.162C295.158 229.198 295.202 229.243 295.256 229.27C295.319 229.315 295.391 229.351 295.463 229.387C295.508 229.414 295.562 229.441 295.616 229.459C295.697 229.495 295.786 229.522 295.876 229.549C295.921 229.567 295.966 229.576 296.02 229.585C296.164 229.612 296.317 229.63 296.478 229.63H302.902C303.109 229.63 303.307 229.621 303.486 229.603C303.54 229.603 303.594 229.585 303.648 229.576C303.765 229.558 303.882 229.54 303.99 229.513C304.043 229.495 304.088 229.477 304.142 229.468C304.241 229.441 304.331 229.405 304.421 229.369C304.466 229.351 304.502 229.333 304.547 229.315C304.627 229.27 304.708 229.225 304.78 229.171C304.807 229.153 304.834 229.135 304.861 229.109C304.942 229.046 305.014 228.974 305.086 228.902C305.095 228.893 305.104 228.884 305.122 228.866C306.901 226.728 302.57 220.646 302.57 218.13C302.57 218.13 302.534 218.094 302.489 218.04C302.318 215.884 302.13 212.281 302.345 208.436H304.735V204.807H304.169C304.852 200.36 310.728 160.596 307.26 138.325C306.074 134.192 305.346 129.889 304.933 125.684C306.424 126.52 307.916 127.077 309.273 127.077C309.955 127.077 310.602 126.942 311.195 126.636C312.651 125.909 314.178 124.121 313.199 119.764ZM274.888 121.965C274.906 121.695 274.96 121.327 275.068 120.851C275.715 117.958 277.197 112.505 278.5 107.806C278.733 111.247 278.868 115.254 278.724 119.512C277.053 120.869 275.715 121.659 274.888 121.965ZM304.52 119.377C304.385 114.984 304.52 110.86 304.78 107.348C306.119 112.145 307.673 117.859 308.338 120.851C308.446 121.327 308.5 121.695 308.518 121.965C307.664 121.641 306.263 120.806 304.511 119.377H304.52Z" fill="#575D6A"/>
<path d="M369.694 126.295C368.383 120.428 363.953 105.057 363.765 104.401C363.576 103.745 363.145 103.233 362.597 102.928C362.597 102.928 359.317 101.292 356.819 100.151C356.73 97.5551 356.712 94.9497 356.748 92.3533C357.376 92.0928 358.014 91.4369 358.41 90.5295C359.021 89.137 358.832 87.6996 357.987 87.3312C357.673 87.1965 357.323 87.2234 356.963 87.3851C357.52 85.5973 360.629 74.6278 353.702 70.0549C353.765 69.435 353.774 69.0666 353.774 69.0666C352.749 68.7163 351.788 68.4557 350.88 68.276C352.219 67.6561 353.1 66.596 353.1 65.3922C353.1 63.4786 350.863 61.9243 348.113 61.9243C345.364 61.9243 343.127 63.4786 343.127 65.3922C343.127 66.596 344.016 67.6651 345.355 68.285C334.987 70.9263 337.098 89.4514 337.098 89.4514C337.233 89.4514 337.358 89.4514 337.484 89.4514C337.538 89.8018 337.637 90.1612 337.799 90.5205C338.203 91.4369 338.85 92.1017 339.479 92.3533C339.515 94.9497 339.497 97.5461 339.407 100.142C336.918 101.283 333.63 102.919 333.63 102.919C333.63 102.919 333.63 102.963 333.648 103.026C333.172 103.341 332.785 103.817 332.615 104.41C332.426 105.066 327.996 120.437 326.685 126.304C325.714 130.661 327.242 132.449 328.688 133.177C329.29 133.482 329.937 133.617 330.611 133.617C331.923 133.617 333.351 133.105 334.78 132.323C334.367 136.501 333.648 140.768 332.462 144.865C332.004 147.803 331.707 151.037 331.545 154.46C330.458 177.01 334.969 207.484 335.562 211.347H334.995V214.977H337.385C337.61 218.813 337.421 222.424 337.242 224.581C337.197 224.634 337.161 224.67 337.161 224.67C337.161 227.177 332.839 233.268 334.609 235.406C334.609 235.415 334.627 235.424 334.636 235.442C334.699 235.514 334.78 235.586 334.861 235.649C334.888 235.667 334.915 235.685 334.942 235.703C335.013 235.757 335.094 235.802 335.184 235.847C335.22 235.865 335.265 235.882 335.31 235.9C335.4 235.936 335.49 235.972 335.588 235.999C335.633 236.017 335.687 236.026 335.741 236.044C335.849 236.071 335.966 236.089 336.083 236.107C336.137 236.107 336.19 236.125 336.244 236.134C336.424 236.152 336.622 236.161 336.828 236.161H343.252C343.414 236.161 343.567 236.143 343.711 236.116C343.756 236.116 343.801 236.089 343.854 236.08C343.944 236.053 344.034 236.035 344.115 235.99C344.169 235.972 344.214 235.945 344.268 235.918C344.34 235.882 344.402 235.847 344.474 235.802C344.528 235.766 344.573 235.73 344.618 235.694C344.672 235.649 344.726 235.595 344.78 235.541C344.825 235.496 344.87 235.442 344.906 235.397C344.951 235.343 344.995 235.29 345.031 235.227C345.067 235.164 345.112 235.11 345.148 235.047C345.184 234.993 345.211 234.93 345.247 234.867C345.283 234.795 345.319 234.733 345.346 234.661C345.373 234.598 345.391 234.544 345.418 234.481C345.445 234.4 345.481 234.319 345.508 234.229C345.93 232.819 345.804 230.941 345.463 229.657C344.717 226.862 343.926 223.925 343.926 223.916L344.124 215.004H346.631V211.374H346.11V173.165C346.11 163.336 346.523 157.029 348.113 157.029C349.703 157.029 350.117 163.336 350.117 173.165V211.374H349.596V215.004H352.102L352.3 223.916C352.3 223.916 351.509 226.871 350.764 229.657C350.422 230.95 350.296 232.828 350.719 234.229C350.746 234.31 350.773 234.391 350.809 234.472C350.836 234.535 350.854 234.607 350.88 234.661C350.907 234.733 350.943 234.804 350.979 234.867C351.015 234.93 351.042 234.993 351.078 235.056C351.114 235.119 351.15 235.173 351.195 235.236C351.231 235.29 351.276 235.352 351.321 235.406C351.366 235.46 351.402 235.505 351.447 235.55C351.5 235.604 351.554 235.649 351.608 235.703C351.653 235.739 351.698 235.784 351.752 235.811C351.815 235.856 351.887 235.891 351.959 235.927C352.004 235.954 352.057 235.981 352.111 235.999C352.192 236.035 352.282 236.062 352.372 236.089C352.417 236.107 352.462 236.116 352.516 236.125C352.659 236.152 352.812 236.17 352.974 236.17H359.398C359.605 236.17 359.802 236.161 359.982 236.143C360.036 236.143 360.09 236.125 360.144 236.116C360.261 236.098 360.377 236.08 360.485 236.053C360.539 236.035 360.584 236.017 360.638 236.008C360.737 235.981 360.827 235.945 360.916 235.909C360.961 235.891 360.997 235.873 361.042 235.856C361.123 235.811 361.204 235.766 361.276 235.712C361.303 235.694 361.33 235.676 361.357 235.649C361.438 235.586 361.509 235.514 361.581 235.442C361.59 235.433 361.599 235.424 361.617 235.406C363.396 233.268 359.066 227.186 359.066 224.67C359.066 224.67 359.03 224.634 358.985 224.581C358.814 222.424 358.625 218.822 358.841 214.977H361.231V211.347H360.665C361.348 206.9 367.224 167.137 363.756 144.865C362.57 140.732 361.842 136.429 361.429 132.225C362.92 133.06 364.411 133.617 365.768 133.617C366.451 133.617 367.098 133.482 367.691 133.177C369.146 132.449 370.674 130.661 369.694 126.304V126.295ZM331.384 128.496C331.402 128.227 331.456 127.858 331.563 127.382C332.21 124.489 333.693 119.036 334.995 114.337C335.229 117.778 335.364 121.785 335.22 126.043C333.549 127.4 332.21 128.191 331.384 128.496ZM361.024 125.909C360.889 121.516 361.024 117.392 361.285 113.879C362.624 118.677 364.178 124.39 364.843 127.382C364.951 127.858 365.004 128.227 365.022 128.496C364.169 128.173 362.767 127.337 361.015 125.909H361.024Z" fill="#575D6A"/>
<path d="M96.1549 119.818C94.8432 113.951 90.4137 98.5793 90.225 97.9234C90.0363 97.2676 89.6051 96.7555 89.057 96.4501C89.057 96.4501 85.7776 94.8149 83.2798 93.674C83.19 91.0776 83.172 88.4722 83.208 85.8758C83.8369 85.6153 84.4748 84.9594 84.8701 84.0521C85.4811 82.6595 85.2924 81.2221 84.4478 80.8537C84.1334 80.719 83.783 80.7459 83.4236 80.9076C83.9806 79.1198 87.0894 68.1503 80.1621 63.5774C80.225 62.9575 80.234 62.5892 80.234 62.5892C79.2098 62.2388 78.2484 61.9782 77.3409 61.7986C78.6797 61.1787 79.5602 60.1185 79.5602 58.9147C79.5602 57.0011 77.323 55.4468 74.5736 55.4468C71.8243 55.4468 69.5871 57.0011 69.5871 58.9147C69.5871 60.1185 70.4766 61.1876 71.8153 61.8075C61.4469 64.4489 63.5584 82.974 63.5584 82.974C63.6931 82.974 63.8189 82.974 63.9447 82.974C63.9986 83.3244 64.0974 83.6837 64.2592 84.0431C64.6635 84.9594 65.3104 85.6243 65.9393 85.8758C65.9753 88.4722 65.9573 91.0686 65.8674 93.665C63.3787 94.806 60.0903 96.4411 60.0903 96.4411C60.0903 96.4411 60.0903 96.486 60.1082 96.5489C59.632 96.8633 59.2457 97.3395 59.075 97.9324C58.8863 98.5882 54.4568 113.96 53.1451 119.827C52.1747 124.184 53.7021 125.972 55.1487 126.699C55.7506 126.996 56.3975 127.14 57.0714 127.14C58.3832 127.14 59.8117 126.627 61.2403 125.846C60.827 130.023 60.1082 134.291 58.9222 138.388C58.464 141.325 58.1675 144.56 58.0058 147.983C56.9186 170.524 61.429 201.006 62.022 204.87H61.4559V208.499H63.8459C64.0705 212.335 63.8818 215.947 63.7021 218.103C63.6572 218.157 63.6213 218.193 63.6213 218.193C63.6213 220.699 59.2996 226.791 61.0696 228.929C61.0696 228.938 61.0876 228.947 61.0965 228.965C61.1594 229.037 61.2403 229.109 61.3212 229.171C61.3481 229.189 61.3751 229.207 61.402 229.225C61.4739 229.279 61.5548 229.324 61.6446 229.369C61.6806 229.387 61.7255 229.414 61.7704 229.423C61.8602 229.459 61.9501 229.495 62.0489 229.522C62.0938 229.54 62.1478 229.549 62.2017 229.567C62.3095 229.594 62.4263 229.612 62.5431 229.63C62.597 229.63 62.6509 229.648 62.7048 229.657C62.8845 229.675 63.0822 229.684 63.2888 229.684H69.7129C69.8746 229.684 70.0274 229.666 70.1711 229.639C70.216 229.639 70.261 229.612 70.3149 229.603C70.4047 229.576 70.4946 229.558 70.5754 229.513C70.6293 229.495 70.6743 229.468 70.7282 229.441C70.8001 229.405 70.8629 229.369 70.9348 229.324C70.9887 229.288 71.0337 229.252 71.0786 229.216C71.1325 229.171 71.1864 229.118 71.2403 229.064C71.2852 229.019 71.3301 228.965 71.3661 228.92C71.411 228.866 71.4559 228.812 71.4919 228.749C71.5278 228.686 71.5727 228.632 71.6087 228.569C71.6446 228.516 71.6716 228.453 71.7075 228.39C71.7434 228.318 71.7794 228.255 71.8063 228.183C71.8333 228.12 71.8513 228.066 71.8782 227.995C71.9052 227.914 71.9411 227.833 71.9681 227.743C72.3903 226.332 72.2646 224.455 71.9231 223.17C71.1774 220.376 70.3867 217.438 70.3867 217.429L70.5844 208.517H73.0912V204.888H72.57V166.678C72.57 156.85 72.9833 150.552 74.5736 150.552C76.1639 150.552 76.5772 156.859 76.5772 166.678V204.888H76.0561V208.517H78.5629L78.7605 217.429C78.7605 217.429 77.9699 220.385 77.2241 223.17C76.8827 224.464 76.7569 226.341 77.1792 227.743C77.2062 227.824 77.2331 227.905 77.2691 227.986C77.296 228.048 77.314 228.12 77.3409 228.174C77.3679 228.246 77.4038 228.318 77.4398 228.381C77.4757 228.444 77.5027 228.507 77.5386 228.569C77.5745 228.632 77.6105 228.686 77.6554 228.749C77.6913 228.803 77.7363 228.866 77.7812 228.92C77.8261 228.974 77.862 229.019 77.907 229.064C77.9609 229.118 78.0148 229.162 78.0687 229.216C78.1136 229.252 78.1585 229.297 78.2125 229.324C78.2753 229.369 78.3472 229.405 78.4191 229.441C78.464 229.468 78.5179 229.495 78.5718 229.513C78.6527 229.549 78.7425 229.576 78.8324 229.603C78.8773 229.621 78.9222 229.63 78.9762 229.639C79.1199 229.666 79.2726 229.684 79.4344 229.684H85.8584C86.0651 229.684 86.2628 229.675 86.4425 229.657C86.4964 229.657 86.5503 229.639 86.6042 229.63C86.721 229.612 86.8378 229.594 86.9456 229.567C86.9995 229.549 87.0444 229.531 87.0983 229.522C87.1972 229.495 87.287 229.459 87.3769 229.423C87.4218 229.405 87.4577 229.387 87.5027 229.369C87.5835 229.324 87.6644 229.279 87.7363 229.225C87.7632 229.207 87.7902 229.189 87.8171 229.162C87.898 229.1 87.9699 229.028 88.0417 228.956C88.0507 228.947 88.0597 228.938 88.0777 228.92C89.8567 226.782 85.526 220.699 85.526 218.184C85.526 218.184 85.4901 218.148 85.4452 218.094C85.2744 215.938 85.0858 212.335 85.3014 208.49H87.6913V204.861H87.1253C87.8081 200.413 93.6842 160.65 90.216 138.379C89.0301 134.246 88.3023 129.943 87.889 125.738C89.3805 126.574 90.8719 127.131 92.2286 127.131C92.9115 127.131 93.5584 126.996 94.1514 126.69C95.6069 125.963 97.1343 124.175 96.1549 119.818ZM57.8441 122.019C57.862 121.749 57.916 121.381 58.0238 120.905C58.6707 118.012 60.1532 112.558 61.4559 107.86C61.6895 111.301 61.8243 115.308 61.6806 119.566C60.0094 120.923 58.6707 121.713 57.8441 122.019ZM87.4757 119.431C87.3409 115.038 87.4757 110.914 87.7363 107.402C89.075 112.199 90.6293 117.913 91.2942 120.905C91.402 121.381 91.4559 121.749 91.4739 122.019C90.6204 121.695 89.2187 120.86 87.4667 119.431H87.4757Z" fill="#B8BFCF" fill-opacity="0.2"/>
<path d="M165.238 126.699C163.927 120.833 159.497 105.461 159.309 104.805C159.12 104.149 158.689 103.637 158.14 103.332C158.14 103.332 154.861 101.697 152.363 100.556C152.273 97.9594 152.255 95.354 152.291 92.7576C152.92 92.4971 153.558 91.8412 153.954 90.9338C154.565 89.5413 154.376 88.1039 153.531 87.7355C153.217 87.6007 152.866 87.6277 152.507 87.7894C153.073 86.0016 156.173 75.0321 149.246 70.4592C149.3 69.8393 149.317 69.4709 149.317 69.4709C148.293 69.1206 147.332 68.86 146.424 68.6803C147.763 68.0604 148.644 67.0003 148.644 65.7965C148.644 63.8829 146.406 62.3286 143.657 62.3286C140.908 62.3286 138.671 63.8829 138.671 65.7965C138.671 67.0003 139.56 68.0694 140.899 68.6893C130.53 71.3306 132.642 89.8557 132.642 89.8557C132.777 89.8557 132.902 89.8557 133.028 89.8557C133.082 90.2061 133.181 90.5655 133.343 90.9248C133.747 91.8412 134.394 92.506 135.032 92.7576C135.068 95.354 135.05 97.9504 134.96 100.547C132.471 101.688 129.183 103.323 129.183 103.323C129.183 103.323 129.183 103.368 129.201 103.431C128.725 103.745 128.338 104.221 128.167 104.814C127.979 105.47 123.549 120.842 122.238 126.708C121.258 131.066 122.795 132.853 124.241 133.581C124.843 133.878 125.49 134.021 126.164 134.021C127.476 134.021 128.904 133.509 130.333 132.728C129.919 136.905 129.192 141.173 128.015 145.269C127.556 148.207 127.26 151.441 127.098 154.864C126.011 177.414 130.521 207.888 131.114 211.751H130.548V215.372H132.938C133.163 219.208 132.974 222.82 132.795 224.976C132.75 225.03 132.714 225.066 132.714 225.066C132.714 227.581 128.392 233.663 130.162 235.802C130.162 235.811 130.18 235.82 130.189 235.838C130.252 235.909 130.333 235.981 130.414 236.044C130.441 236.062 130.468 236.08 130.494 236.107C130.566 236.161 130.647 236.206 130.737 236.251C130.773 236.269 130.818 236.287 130.863 236.305C130.953 236.341 131.043 236.377 131.141 236.404C131.195 236.422 131.24 236.431 131.294 236.449C131.402 236.475 131.519 236.493 131.636 236.511C131.689 236.511 131.734 236.529 131.797 236.538C131.977 236.556 132.166 236.565 132.381 236.565H138.805C138.967 236.565 139.12 236.547 139.264 236.52C139.309 236.52 139.353 236.493 139.407 236.484C139.497 236.457 139.587 236.44 139.668 236.404C139.722 236.386 139.767 236.35 139.821 236.323C139.893 236.287 139.955 236.251 140.027 236.206C140.081 236.17 140.126 236.134 140.171 236.098C140.225 236.053 140.279 235.999 140.333 235.945C140.378 235.9 140.423 235.847 140.459 235.802C140.503 235.748 140.548 235.694 140.584 235.631C140.62 235.568 140.665 235.514 140.701 235.451C140.737 235.397 140.764 235.334 140.8 235.272C140.836 235.2 140.872 235.137 140.899 235.065C140.926 235.002 140.944 234.948 140.971 234.876C140.998 234.795 141.034 234.715 141.061 234.625C141.483 233.214 141.357 231.337 141.016 230.052C140.27 227.258 139.479 224.32 139.479 224.302L139.677 215.39H142.184V211.769H141.663V173.56C141.663 163.732 142.076 157.425 143.666 157.425C145.256 157.425 145.67 163.732 145.67 173.56V211.769H145.149V215.39H147.655L147.853 224.302C147.853 224.302 147.062 227.258 146.317 230.052C145.975 231.337 145.849 233.214 146.272 234.625C146.299 234.706 146.326 234.786 146.362 234.858C146.388 234.921 146.406 234.993 146.433 235.047C146.46 235.119 146.496 235.191 146.532 235.254C146.568 235.317 146.595 235.379 146.631 235.442C146.667 235.505 146.703 235.559 146.748 235.622C146.793 235.685 146.829 235.739 146.874 235.793C146.919 235.847 146.955 235.891 146.999 235.936C147.053 235.99 147.107 236.035 147.161 236.089C147.206 236.125 147.251 236.17 147.305 236.197C147.368 236.242 147.44 236.278 147.512 236.314C147.565 236.341 147.61 236.368 147.664 236.395C147.745 236.431 147.835 236.457 147.925 236.475C147.97 236.493 148.015 236.502 148.069 236.511C148.212 236.538 148.365 236.556 148.527 236.556H154.951C155.158 236.556 155.355 236.547 155.535 236.529C155.589 236.529 155.643 236.511 155.697 236.502C155.813 236.484 155.93 236.466 156.038 236.44C156.092 236.422 156.137 236.413 156.191 236.395C156.29 236.368 156.379 236.332 156.469 236.296C156.514 236.278 156.55 236.26 156.595 236.242C156.685 236.197 156.757 236.152 156.838 236.098C156.865 236.08 156.892 236.062 156.919 236.035C156.999 235.972 157.071 235.9 157.143 235.829C157.152 235.82 157.161 235.811 157.179 235.793C158.958 233.654 154.627 227.572 154.627 225.057C154.627 225.057 154.592 225.021 154.547 224.967C154.376 222.811 154.178 219.208 154.403 215.363H156.793V211.742H156.227C156.91 207.295 162.786 167.532 159.318 145.26C158.132 141.128 157.404 136.824 156.99 132.62C158.482 133.455 159.973 134.003 161.33 134.012C162.013 134.012 162.66 133.878 163.253 133.572C164.708 132.844 166.236 131.057 165.256 126.699H165.238ZM126.928 128.9C126.946 128.631 126.999 128.263 127.107 127.786C127.754 124.894 129.237 119.44 130.539 114.742C130.773 118.182 130.908 122.189 130.764 126.448C129.093 127.804 127.754 128.595 126.928 128.9ZM156.568 126.313C156.433 121.92 156.568 117.796 156.829 114.283C158.167 119.081 159.722 124.795 160.387 127.786C160.494 128.263 160.548 128.631 160.566 128.9C159.713 128.577 158.311 127.741 156.568 126.313Z" fill="#474C57"/>
<path d="M50.2338 105.102C49.3713 101.257 47.0263 92.8654 45.1664 86.3879L46.1727 86.1004L43.8906 78.0597C43.4144 76.3797 41.86 75.3106 40.1889 75.3645C38.6255 74.6278 36.586 73.6755 35.0676 72.9837C34.9688 70.0639 34.9508 67.1351 34.9957 64.2153C35.7055 63.9278 36.4153 63.1821 36.8645 62.1579C37.179 61.4302 37.2958 60.7115 37.2509 60.0916C37.8169 58.6721 37.7181 57.2347 37.7181 57.2347C39.9463 54.5574 38.1493 50.9279 38.1493 50.9279C40.7909 47.6217 42.2374 35.8976 30.8627 32.8789C19.4881 29.8603 14.3937 38.7365 14.3937 38.7365C14.3937 38.7365 11.6983 38.5748 9.98223 41.0005C8.25717 43.4262 9.98223 46.3909 9.98223 46.3909C5.94809 50.3798 11.4378 57.594 11.4378 57.594C10.2158 60.8103 12.6237 62.4185 14.259 63.1102C14.6543 63.6493 15.1305 64.0356 15.5977 64.2153C15.6426 67.1351 15.6157 70.0549 15.5258 72.9747C14.0074 73.6665 11.9679 74.6188 10.4045 75.3555C8.73336 75.3016 7.179 76.3707 6.70281 78.0507L4.42069 86.0914L5.42698 86.3789C3.57613 92.8564 1.22213 101.248 0.359594 105.093C-0.736543 109.998 0.97954 112.001 2.61476 112.828C3.28861 113.169 4.01638 113.322 4.78008 113.322C5.91215 113.322 7.17002 112.864 8.46382 112.109C8.51772 119.027 8.55366 126.026 8.55366 132.162C8.55366 132.162 8.58062 132.18 8.63453 132.198L8.27514 143.338L6.98134 183.461V216.729H5.57972V221.364H8.39194L5.57972 238.82C5.57972 238.82 8.10443 240.653 12.5159 240.653C16.9274 240.653 20.8807 238.712 20.8807 238.712L18.338 221.364H20.8807V216.729H20.2697L21.0784 185.329L25.2742 150.956L29.506 185.599L30.3147 216.998H29.7037V221.634H32.2104L30.5483 232.981L30.1889 235.433L29.7037 238.712C29.7037 238.712 33.4324 240.653 38.0685 240.653C42.7046 240.653 45.0047 238.82 45.0047 238.82L42.2374 221.634H45.0047V216.998H43.6031V183.73L41.9499 132.422H41.4198C41.8151 132.251 42.0397 132.153 42.0397 132.153C42.0397 126.017 42.0757 119.018 42.1296 112.1C43.4324 112.855 44.6812 113.313 45.8133 113.313C46.577 113.313 47.3048 113.16 47.9786 112.819C49.6139 112.001 51.3299 109.989 50.2338 105.084V105.102ZM15.409 58.6721C15.409 58.6721 15.409 58.6721 15.418 58.6721C15.418 58.6721 15.418 58.6811 15.418 58.6901C15.418 58.6901 15.418 58.6901 15.409 58.6901V58.6721ZM5.59769 107.572C5.62464 107.267 5.67855 106.854 5.79535 106.315C6.26256 104.212 7.22392 100.61 8.30209 96.7196C8.32905 99.4867 8.36498 102.406 8.39194 105.407C7.18799 106.548 6.21763 107.339 5.59769 107.572ZM42.1835 105.416C42.2104 102.415 42.2374 99.4956 42.2733 96.7286C43.3515 100.619 44.3039 104.221 44.7801 106.324C44.8969 106.863 44.9598 107.267 44.9867 107.581C44.3668 107.348 43.3874 106.566 42.1925 105.416H42.1835Z" fill="#575D6A"/>
<path d="M146.936 105.102C146.074 101.257 143.729 92.8654 141.869 86.3879L142.875 86.1004L140.593 78.0597C140.117 76.3797 138.563 75.3106 136.892 75.3645C135.328 74.6278 133.289 73.6755 131.77 72.9837C131.671 70.0639 131.653 67.1351 131.698 64.2153C132.408 63.9278 133.118 63.1821 133.567 62.1579C133.882 61.4302 133.998 60.7115 133.954 60.0916C134.52 58.6721 134.421 57.2347 134.421 57.2347C136.649 54.5574 134.852 50.9279 134.852 50.9279C137.493 47.6217 138.94 35.8976 127.565 32.8789C116.191 29.8603 111.096 38.7365 111.096 38.7365C111.096 38.7365 108.401 38.5748 106.685 41.0005C104.96 43.4262 106.685 46.3909 106.685 46.3909C102.651 50.3798 108.14 57.594 108.14 57.594C106.918 60.8103 109.326 62.4185 110.962 63.1102C111.357 63.6493 111.833 64.0356 112.3 64.2153C112.345 67.1351 112.318 70.0549 112.228 72.9747C110.71 73.6665 108.67 74.6188 107.107 75.3555C105.436 75.3016 103.882 76.3707 103.405 78.0507L101.123 86.0914L102.13 86.3789C100.279 92.8564 97.9248 101.248 97.0622 105.093C95.9661 109.998 97.6822 112.001 99.3174 112.828C99.9913 113.169 100.719 113.322 101.483 113.322C102.615 113.322 103.873 112.864 105.166 112.109C105.22 119.027 105.256 126.026 105.256 132.162C105.256 132.162 105.283 132.18 105.337 132.198L104.978 143.338L103.684 183.461V216.729H102.282V221.364H105.095L102.282 238.82C102.282 238.82 104.807 240.653 109.219 240.653C113.63 240.653 117.583 238.712 117.583 238.712L115.041 221.364H117.583V216.729H116.972L117.781 185.329L121.977 150.956L126.209 185.599L127.017 216.998H126.406V221.634H128.913L127.251 232.981L126.892 235.433L126.406 238.712C126.406 238.712 130.135 240.653 134.771 240.653C139.407 240.653 141.707 238.82 141.707 238.82L138.94 221.634H141.707V216.998H140.306V183.73L138.653 132.422H138.122C138.518 132.251 138.742 132.153 138.742 132.153C138.742 126.017 138.778 119.018 138.832 112.1C140.135 112.855 141.384 113.313 142.516 113.313C143.28 113.313 144.007 113.16 144.681 112.819C146.316 112.001 148.033 109.989 146.936 105.084V105.102ZM112.112 58.6721C112.112 58.6721 112.112 58.6721 112.121 58.6721C112.121 58.6721 112.121 58.6811 112.121 58.6901C112.121 58.6901 112.121 58.6901 112.112 58.6901V58.6721ZM102.309 107.572C102.336 107.267 102.39 106.854 102.507 106.315C102.974 104.212 103.936 100.61 105.014 96.7196C105.041 99.4867 105.077 102.406 105.104 105.407C103.9 106.548 102.929 107.339 102.309 107.572ZM138.886 105.416C138.913 102.415 138.94 99.4956 138.976 96.7286C140.054 100.619 141.007 104.221 141.483 106.324C141.6 106.863 141.662 107.267 141.689 107.581C141.069 107.348 140.09 106.566 138.895 105.416H138.886Z" fill="#575D6A"/>
<path d="M261.824 101.4C260.962 97.5551 258.617 89.164 256.757 82.6865L257.763 82.399L255.481 74.3583C255.005 72.6783 253.451 71.6092 251.779 71.6631C250.216 70.9264 248.177 69.9741 246.658 69.2823C246.559 66.3625 246.541 63.4337 246.577 60.5139C247.287 60.2264 247.997 59.4807 248.446 58.4565C248.761 57.7288 248.877 57.0101 248.832 56.3902C249.398 54.9707 249.3 53.5333 249.3 53.5333C251.528 50.856 249.731 47.2265 249.731 47.2265C252.372 43.9203 253.819 32.1961 242.444 29.1775C231.07 26.1589 225.975 35.0351 225.975 35.0351C225.975 35.0351 223.28 34.8734 221.564 37.2991C219.839 39.7248 221.564 42.6895 221.564 42.6895C217.53 46.6784 223.019 53.8926 223.019 53.8926C221.797 57.1089 224.205 58.7171 225.841 59.4088C226.236 59.9479 226.712 60.3342 227.179 60.5139C227.224 63.4337 227.206 66.3535 227.107 69.2733C225.589 69.9651 223.549 70.9174 221.986 71.6541C220.315 71.6002 218.761 72.6693 218.284 74.3493L216.002 82.39L217.009 82.6775C215.158 89.155 212.804 97.5461 211.941 101.391C210.845 106.297 212.561 108.3 214.196 109.127C214.87 109.468 215.598 109.621 216.362 109.621C217.494 109.621 218.752 109.162 220.045 108.408C220.099 115.326 220.135 122.324 220.135 128.46C220.135 128.46 220.171 128.478 220.216 128.496L219.857 139.636L218.563 179.759V213.027H217.161V217.663H219.973L217.161 235.119C217.161 235.119 219.686 236.952 224.097 236.952C228.734 236.952 232.462 235.011 232.462 235.011L229.92 217.663H232.462V213.027H231.851L232.66 181.628L236.856 147.255L241.088 181.897L241.896 213.297H241.285V217.932H243.792L242.13 229.279L241.77 231.732L241.285 235.011C241.285 235.011 245.014 236.952 249.65 236.952C254.286 236.952 256.586 235.119 256.586 235.119L253.819 217.932H256.586V213.297H255.185V180.029L253.531 128.721H253.001C253.397 128.55 253.621 128.451 253.621 128.451C253.621 122.315 253.657 115.317 253.711 108.399C255.014 109.154 256.263 109.612 257.395 109.612C258.159 109.612 258.886 109.459 259.56 109.118C261.195 108.3 262.911 106.288 261.815 101.382L261.824 101.4ZM227 54.9707C227 54.9707 227 54.9707 227.009 54.9707C227.009 54.9707 227.009 54.9797 227.009 54.9887C227.009 54.9887 227.009 54.9887 227 54.9887V54.9707ZM217.197 103.871C217.224 103.565 217.278 103.152 217.395 102.613C217.862 100.511 218.823 96.9083 219.902 93.0182C219.929 95.7852 219.965 98.7051 219.991 101.706C218.788 102.847 217.817 103.637 217.197 103.871ZM253.774 101.715C253.801 98.714 253.828 95.7942 253.864 93.0271C254.942 96.9172 255.894 100.52 256.371 102.622C256.487 103.161 256.55 103.565 256.577 103.88C255.957 103.646 254.978 102.865 253.783 101.715H253.774Z" fill="#575D6A"/>
<path d="M236.981 125.648C235.67 119.782 231.24 104.41 231.051 103.754C230.863 103.098 230.432 102.586 229.883 102.281C229.883 102.281 226.604 100.637 224.106 99.4956C224.016 96.8992 223.998 94.2939 224.034 91.6975C224.663 91.4369 225.301 90.7811 225.697 89.8737C226.308 88.4812 226.119 87.0437 225.283 86.6754C224.969 86.5406 224.618 86.5676 224.259 86.7293C224.825 84.9415 227.925 73.9719 220.998 69.3991C221.051 68.7792 221.069 68.4108 221.069 68.4108C220.045 68.0604 219.084 67.7999 218.176 67.6202C219.515 67.0003 220.396 65.9402 220.396 64.7363C220.396 62.8227 218.158 61.2685 215.409 61.2685C212.66 61.2685 210.423 62.8227 210.423 64.7363C210.423 65.9402 211.312 67.0093 212.66 67.6292C202.291 70.2705 204.403 88.7956 204.403 88.7956C204.538 88.7956 204.663 88.7956 204.789 88.7956C204.843 89.146 204.942 89.5054 205.104 89.8647C205.508 90.7811 206.155 91.4459 206.784 91.6975C206.82 94.2939 206.802 96.8903 206.712 99.4866C204.223 100.628 200.935 102.263 200.935 102.263C200.935 102.263 200.935 102.308 200.953 102.371C200.467 102.685 200.09 103.161 199.919 103.754C199.731 104.41 195.301 119.782 193.989 125.648C193.01 130.005 194.547 131.793 195.993 132.521C196.595 132.817 197.242 132.961 197.916 132.961C199.219 132.961 200.647 132.449 202.085 131.668C201.671 135.845 200.944 140.113 199.767 144.209C199.308 147.147 199.012 150.381 198.85 153.804C197.763 176.354 202.273 206.828 202.857 210.691H202.291V214.312H204.681C204.906 218.148 204.717 221.76 204.538 223.916C204.493 223.97 204.457 224.006 204.457 224.006C204.457 226.521 200.135 232.603 201.905 234.742C201.905 234.751 201.923 234.76 201.932 234.777C201.995 234.849 202.076 234.921 202.157 234.984C202.184 235.002 202.211 235.02 202.237 235.047C202.309 235.101 202.39 235.146 202.48 235.191C202.516 235.209 202.561 235.236 202.606 235.245C202.687 235.281 202.786 235.317 202.884 235.343C202.938 235.361 202.983 235.37 203.037 235.388C203.145 235.415 203.262 235.433 203.379 235.451C203.432 235.451 203.477 235.469 203.54 235.478C203.72 235.496 203.909 235.505 204.124 235.505H210.548C210.71 235.505 210.863 235.487 211.007 235.46C211.051 235.46 211.096 235.433 211.15 235.424C211.24 235.397 211.33 235.379 211.411 235.343C211.465 235.326 211.51 235.29 211.564 235.263C211.635 235.227 211.707 235.191 211.77 235.146C211.815 235.11 211.869 235.074 211.914 235.038C211.968 234.993 212.022 234.939 212.076 234.885C212.121 234.84 212.166 234.786 212.202 234.742C212.246 234.688 212.291 234.634 212.327 234.571C212.363 234.508 212.408 234.454 212.444 234.391C212.48 234.337 212.507 234.274 212.543 234.211C212.579 234.14 212.615 234.077 212.642 234.005C212.669 233.942 212.687 233.888 212.714 233.816C212.741 233.735 212.777 233.654 212.804 233.565C213.226 232.154 213.1 230.276 212.759 228.992C212.013 226.198 211.222 223.26 211.222 223.242L211.42 214.33H213.927V210.709H213.405V172.5C213.405 162.671 213.819 156.365 215.409 156.365C216.999 156.365 217.413 162.671 217.413 172.5V210.709H216.892V214.33H219.398L219.596 223.242C219.596 223.242 218.805 226.198 218.06 228.992C217.718 230.276 217.592 232.154 218.015 233.565C218.042 233.645 218.069 233.726 218.096 233.798C218.122 233.861 218.14 233.933 218.167 233.987C218.194 234.059 218.23 234.131 218.266 234.194C218.302 234.256 218.329 234.319 218.365 234.382C218.401 234.445 218.437 234.499 218.482 234.562C218.527 234.625 218.563 234.679 218.608 234.733C218.653 234.786 218.688 234.831 218.733 234.876C218.787 234.93 218.841 234.975 218.895 235.029C218.94 235.065 218.985 235.11 219.039 235.137C219.102 235.182 219.174 235.218 219.246 235.254C219.299 235.281 219.344 235.308 219.398 235.334C219.479 235.37 219.569 235.397 219.659 235.415C219.704 235.433 219.749 235.442 219.803 235.451C219.946 235.478 220.099 235.496 220.261 235.496H226.685C226.892 235.496 227.089 235.487 227.269 235.469C227.323 235.469 227.377 235.451 227.431 235.442C227.547 235.424 227.664 235.406 227.772 235.379C227.826 235.361 227.871 235.352 227.925 235.334C228.024 235.308 228.113 235.272 228.203 235.236C228.248 235.218 228.284 235.2 228.329 235.182C228.419 235.137 228.491 235.092 228.572 235.038C228.599 235.02 228.626 235.002 228.653 234.975C228.733 234.912 228.805 234.84 228.877 234.768C228.886 234.759 228.904 234.751 228.913 234.733C230.692 232.594 226.361 226.512 226.361 223.997C226.361 223.997 226.326 223.961 226.281 223.907C226.11 221.751 225.912 218.148 226.137 214.303H228.527V210.682H227.961C228.644 206.235 234.52 166.472 231.051 144.2C229.865 140.068 229.138 135.764 228.724 131.56C230.216 132.395 231.707 132.952 233.064 132.952C233.747 132.952 234.394 132.817 234.987 132.512C236.442 131.784 237.97 129.996 236.99 125.639L236.981 125.648ZM198.671 127.849C198.688 127.58 198.742 127.211 198.85 126.735C199.497 123.842 200.98 118.389 202.282 113.69C202.516 117.131 202.651 121.138 202.507 125.397C200.836 126.753 199.497 127.544 198.671 127.849ZM228.311 125.253C228.176 120.86 228.311 116.736 228.572 113.223C229.91 118.021 231.465 123.735 232.13 126.726C232.237 127.202 232.291 127.571 232.309 127.84C231.456 127.517 230.054 126.681 228.311 125.253Z" fill="#6A707E"/>
<path d="M294.582 117.374C293.046 110.519 287.88 92.569 287.655 91.8053C287.439 91.0417 286.927 90.4397 286.289 90.0804V90.0714C286.289 90.0714 282.453 88.1668 279.542 86.8281C279.443 83.7915 279.416 80.7549 279.461 77.7183C280.198 77.4219 280.934 76.6492 281.402 75.5891C282.111 73.963 281.896 72.292 280.916 71.8607C280.557 71.699 280.135 71.7349 279.721 71.9236C280.377 69.8393 284.007 57.0281 275.912 51.6825C275.984 50.9548 276.002 50.5326 276.002 50.5326C274.807 50.1193 273.684 49.8139 272.624 49.6072C274.187 48.8795 275.211 47.6397 275.211 46.2382C275.211 44.0012 272.606 42.1864 269.38 42.1864C266.155 42.1864 263.558 44.0012 263.558 46.2382C263.558 47.6487 264.591 48.8885 266.164 49.6162C254.052 52.7067 256.523 74.3403 256.523 74.3403C256.676 74.3493 256.819 74.3403 256.972 74.3493C257.035 74.7536 257.152 75.1758 257.341 75.5981C257.808 76.6672 258.562 77.4488 259.308 77.7363C259.353 80.7729 259.335 83.8005 259.227 86.8371C256.316 88.1668 252.48 90.0804 252.48 90.0804C252.48 90.0804 252.489 90.1253 252.507 90.2062C251.95 90.5745 251.5 91.1225 251.303 91.8233C251.087 92.5869 245.912 110.537 244.376 117.392C243.235 122.486 245.022 124.57 246.721 125.424C247.421 125.774 248.176 125.936 248.967 125.936C250.494 125.936 252.165 125.334 253.836 124.417C253.351 129.296 252.507 134.282 251.132 139.07C250.602 142.493 250.252 146.285 250.063 150.274C248.787 176.606 254.061 212.201 254.753 216.711H254.088V220.942H256.882C257.143 225.425 256.918 229.639 256.721 232.154C256.667 232.217 256.631 232.262 256.631 232.262C256.631 235.191 251.581 242.297 253.657 244.795C253.666 244.813 253.684 244.822 253.693 244.831C253.774 244.92 253.854 245.001 253.953 245.073C253.98 245.1 254.016 245.118 254.052 245.145C254.142 245.208 254.232 245.262 254.331 245.307C254.376 245.334 254.421 245.352 254.474 245.37C254.573 245.415 254.681 245.451 254.798 245.486C254.852 245.504 254.915 245.522 254.978 245.54C255.103 245.567 255.238 245.594 255.382 245.612C255.445 245.612 255.499 245.639 255.571 245.639C255.777 245.657 256.002 245.675 256.253 245.675H263.756C263.944 245.675 264.124 245.657 264.295 245.621C264.349 245.612 264.403 245.594 264.456 245.576C264.564 245.549 264.663 245.522 264.762 245.477C264.825 245.451 264.879 245.424 264.933 245.388C265.013 245.343 265.094 245.298 265.166 245.244C265.22 245.199 265.274 245.154 265.328 245.109C265.391 245.055 265.454 244.992 265.517 244.938C265.571 244.885 265.615 244.831 265.669 244.768C265.723 244.705 265.768 244.642 265.813 244.57C265.858 244.498 265.903 244.435 265.948 244.363C265.984 244.292 266.02 244.22 266.056 244.157C266.092 244.076 266.137 243.995 266.173 243.914C266.199 243.842 266.226 243.771 266.253 243.699C266.289 243.6 266.325 243.51 266.352 243.411C266.846 241.767 266.703 239.575 266.298 238.066C265.427 234.804 264.501 231.364 264.501 231.355L264.726 220.942H267.655V216.711H267.053V172.087C267.053 160.614 267.538 153.247 269.389 153.247C271.24 153.247 271.725 160.614 271.725 172.087V216.711H271.123V220.942H274.052L274.277 231.355C274.277 231.355 273.351 234.804 272.48 238.066C272.084 239.575 271.932 241.767 272.426 243.411C272.453 243.51 272.489 243.6 272.525 243.69C272.552 243.762 272.579 243.842 272.606 243.914C272.642 244.004 272.677 244.076 272.722 244.157C272.758 244.229 272.794 244.301 272.839 244.372C272.884 244.444 272.929 244.507 272.974 244.579C273.019 244.651 273.073 244.714 273.127 244.777C273.172 244.84 273.226 244.894 273.279 244.947C273.342 245.01 273.405 245.064 273.468 245.118C273.522 245.163 273.576 245.208 273.63 245.253C273.702 245.307 273.783 245.352 273.863 245.397C273.917 245.424 273.98 245.46 274.034 245.486C274.133 245.531 274.232 245.558 274.34 245.585C274.394 245.603 274.447 245.621 274.501 245.63C274.672 245.666 274.843 245.684 275.04 245.684H282.543C282.785 245.684 283.01 245.666 283.226 245.648C283.288 245.648 283.351 245.63 283.414 245.621C283.558 245.603 283.693 245.576 283.819 245.549C283.881 245.531 283.935 245.513 283.998 245.495C284.115 245.46 284.223 245.424 284.322 245.379C284.367 245.361 284.42 245.334 284.465 245.316C284.564 245.262 284.654 245.208 284.744 245.154C284.78 245.127 284.807 245.109 284.843 245.082C284.942 245.01 285.022 244.929 285.103 244.84C285.112 244.822 285.13 244.813 285.139 244.804C287.215 242.306 282.165 235.2 282.165 232.271C282.165 232.271 282.129 232.226 282.076 232.163C281.869 229.648 281.653 225.434 281.914 220.951H284.708V216.72H284.043C284.834 211.527 291.707 165.079 287.655 139.079C286.271 134.255 285.427 129.233 284.942 124.319C286.685 125.298 288.419 125.945 290.009 125.945C290.8 125.945 291.554 125.783 292.255 125.433C293.953 124.579 295.741 122.495 294.6 117.401L294.582 117.374ZM249.838 119.943C249.865 119.62 249.919 119.198 250.045 118.641C250.8 115.263 252.525 108.893 254.052 103.404C254.331 107.429 254.483 112.1 254.313 117.077C252.354 118.659 250.8 119.584 249.829 119.943H249.838ZM284.456 116.916C284.295 111.777 284.456 106.961 284.762 102.874C286.325 108.48 288.14 115.155 288.922 118.641C289.048 119.198 289.111 119.62 289.128 119.943C288.131 119.566 286.496 118.596 284.456 116.916Z" fill="#6A707E"/>
<path d="M124.178 117.374C122.642 110.519 117.475 92.569 117.251 91.8053C117.035 91.0417 116.523 90.4397 115.885 90.0804V90.0714C115.885 90.0714 112.049 88.1668 109.137 86.8281C109.039 83.7915 109.012 80.7549 109.057 77.7183C109.793 77.4219 110.53 76.6492 110.997 75.5891C111.707 73.963 111.491 72.292 110.512 71.8607C110.153 71.699 109.73 71.7349 109.317 71.9236C109.973 69.8393 113.603 57.0281 105.508 51.6825C105.58 50.9548 105.598 50.5326 105.598 50.5326C104.403 50.1193 103.279 49.8139 102.219 49.6072C103.783 48.8795 104.807 47.6397 104.807 46.2382C104.807 44.0012 102.201 42.1864 98.9758 42.1864C95.7503 42.1864 93.1537 44.0012 93.1537 46.2382C93.1537 47.6487 94.1869 48.8885 95.7592 49.6162C83.6478 52.7067 86.1186 74.3403 86.1186 74.3403C86.2714 74.3493 86.4151 74.3403 86.5679 74.3493C86.6308 74.7536 86.7476 75.1758 86.9362 75.5981C87.4034 76.6672 88.1582 77.4488 88.9039 77.7363C88.9488 80.7729 88.9308 83.8005 88.823 86.8371C85.912 88.1668 82.0755 90.0804 82.0755 90.0804C82.0755 90.0804 82.0845 90.1253 82.1025 90.2062C81.5454 90.5745 81.0962 91.1225 80.8985 91.8233C80.6829 92.5869 75.5077 110.537 73.9713 117.392C72.8302 122.486 74.6182 124.57 76.3163 125.424C77.0171 125.774 77.7718 125.936 78.5625 125.936C80.0899 125.936 81.761 125.334 83.4322 124.417C82.947 129.296 82.1025 134.282 80.7278 139.07C80.1977 142.493 79.8473 146.285 79.6586 150.274C78.3828 176.606 83.6568 212.201 84.3486 216.711H83.6838V220.942H86.478C86.7386 225.425 86.514 229.639 86.3163 232.154C86.2624 232.217 86.2264 232.262 86.2264 232.262C86.2264 235.191 81.177 242.297 83.2525 244.795C83.2615 244.813 83.2795 244.822 83.2884 244.831C83.3693 244.92 83.4502 245.001 83.549 245.073C83.5759 245.1 83.6119 245.118 83.6478 245.145C83.7377 245.208 83.8275 245.262 83.9264 245.307C83.9713 245.334 84.0162 245.352 84.0701 245.37C84.1689 245.415 84.2768 245.451 84.3936 245.486C84.4475 245.504 84.5104 245.522 84.5733 245.54C84.699 245.567 84.8338 245.594 84.9776 245.612C85.0405 245.612 85.0944 245.639 85.1662 245.639C85.3729 245.657 85.5975 245.675 85.8491 245.675H93.3513C93.54 245.675 93.7197 245.657 93.8904 245.621C93.9443 245.612 93.9982 245.594 94.0521 245.576C94.16 245.549 94.2588 245.522 94.3576 245.477C94.4205 245.451 94.4744 245.424 94.5283 245.388C94.6092 245.343 94.6901 245.298 94.7619 245.244C94.8158 245.199 94.8698 245.154 94.9237 245.109C94.9866 245.055 95.0494 244.992 95.1123 244.938C95.1662 244.885 95.2112 244.831 95.2651 244.768C95.319 244.705 95.3639 244.642 95.4088 244.57C95.4538 244.498 95.4987 244.435 95.5436 244.363C95.5795 244.292 95.6155 244.22 95.6514 244.157C95.6874 244.076 95.7323 243.995 95.7682 243.914C95.7952 243.842 95.8221 243.771 95.8491 243.699C95.885 243.6 95.921 243.51 95.9479 243.411C96.4421 241.767 96.2983 239.575 95.894 238.066C95.0225 234.804 94.0971 231.364 94.0971 231.355L94.3217 220.942H97.2507V216.711H96.6487V172.087C96.6487 160.614 97.1339 153.247 98.9848 153.247C100.836 153.247 101.321 160.614 101.321 172.087V216.711H100.719V220.942H103.648L103.872 231.355C103.872 231.355 102.947 234.804 102.076 238.066C101.68 239.575 101.527 241.767 102.022 243.411C102.049 243.51 102.084 243.6 102.12 243.69C102.147 243.762 102.174 243.842 102.201 243.914C102.237 244.004 102.273 244.076 102.318 244.157C102.354 244.229 102.39 244.301 102.435 244.372C102.48 244.444 102.525 244.507 102.57 244.579C102.615 244.651 102.668 244.714 102.722 244.777C102.767 244.84 102.821 244.894 102.875 244.947C102.938 245.01 103.001 245.064 103.064 245.118C103.118 245.163 103.172 245.208 103.226 245.253C103.297 245.307 103.378 245.352 103.459 245.397C103.513 245.424 103.576 245.46 103.63 245.486C103.729 245.531 103.828 245.558 103.935 245.585C103.989 245.603 104.043 245.621 104.097 245.63C104.268 245.666 104.438 245.684 104.636 245.684H112.138C112.381 245.684 112.606 245.666 112.821 245.648C112.884 245.648 112.947 245.63 113.01 245.621C113.154 245.603 113.288 245.576 113.414 245.549C113.477 245.531 113.531 245.513 113.594 245.495C113.711 245.46 113.819 245.424 113.917 245.379C113.962 245.361 114.016 245.334 114.061 245.316C114.16 245.262 114.25 245.208 114.34 245.154C114.376 245.127 114.403 245.109 114.438 245.082C114.537 245.01 114.618 244.929 114.699 244.84C114.708 244.822 114.726 244.813 114.735 244.804C116.81 242.306 111.761 235.2 111.761 232.271C111.761 232.271 111.725 232.226 111.671 232.163C111.465 229.648 111.249 225.434 111.509 220.951H114.304V216.72H113.639C114.43 211.527 121.303 165.079 117.251 139.079C115.867 134.255 115.022 129.233 114.537 124.319C116.28 125.298 118.014 125.945 119.605 125.945C120.395 125.945 121.15 125.783 121.851 125.433C123.549 124.579 125.337 122.495 124.196 117.401L124.178 117.374ZM79.434 119.943C79.4609 119.62 79.5149 119.198 79.6406 118.641C80.3954 115.263 82.1204 108.893 83.6478 103.404C83.9264 107.429 84.0791 112.1 83.9084 117.077C81.9497 118.659 80.3954 119.584 79.425 119.943H79.434ZM114.052 116.916C113.89 111.777 114.052 106.961 114.358 102.874C115.921 108.48 117.736 115.155 118.518 118.641C118.643 119.198 118.706 119.62 118.724 119.943C117.727 119.566 116.092 118.596 114.052 116.916Z" fill="#6A707E"/>
<path d="M347.664 108.12C346.765 104.113 344.313 95.354 342.381 88.598L343.432 88.3015L341.051 79.9194C340.557 78.1675 338.931 77.0535 337.188 77.1074C335.553 76.3438 333.423 75.3465 331.842 74.6278C331.743 71.5732 331.716 68.5276 331.761 65.482C332.498 65.1856 333.243 64.4039 333.711 63.3438C334.043 62.5892 334.16 61.8345 334.115 61.1877C334.708 59.7053 334.6 58.2139 334.6 58.2139C336.927 55.4199 335.049 51.6376 335.049 51.6376C337.799 48.1877 339.308 35.9515 327.448 32.807C315.588 29.6626 310.269 38.9162 310.269 38.9162C310.269 38.9162 307.457 38.7455 305.66 41.279C303.863 43.8125 305.66 46.903 305.66 46.903C301.447 51.0626 307.17 58.5913 307.17 58.5913C305.894 61.9423 308.41 63.6223 310.117 64.35C310.53 64.916 311.024 65.3113 311.509 65.509C311.554 68.5546 311.536 71.6002 311.429 74.6458C309.847 75.3735 307.718 76.3617 306.083 77.1254C304.34 77.0715 302.713 78.1855 302.219 79.9374L299.838 88.3195L300.889 88.616C298.958 95.381 296.505 104.131 295.606 108.138C294.465 113.25 296.253 115.344 297.96 116.206C298.661 116.556 299.425 116.718 300.216 116.718C301.402 116.718 302.704 116.242 304.061 115.451C304.124 122.666 304.16 129.97 304.16 136.366C304.16 136.366 304.196 136.384 304.25 136.402L303.872 148.027L302.525 189.884V224.581H301.06V229.414H303.998L301.06 247.625C301.06 247.625 303.693 249.538 308.302 249.538C313.136 249.538 317.026 247.517 317.026 247.517L314.376 229.423H317.026V224.59H316.388L317.233 191.834L321.608 155.978L326.02 192.112L326.864 224.868H326.226V229.702H328.841L327.107 241.533L326.73 244.094L326.226 247.517C326.226 247.517 330.117 249.538 334.951 249.538C339.784 249.538 342.192 247.625 342.192 247.625L339.299 229.693H342.192V224.859H340.728V190.163L339.003 136.645H338.446C338.859 136.474 339.093 136.366 339.093 136.366C339.093 129.97 339.128 122.666 339.191 115.451C340.548 116.233 341.851 116.718 343.037 116.718C343.836 116.718 344.591 116.556 345.292 116.206C346.999 115.353 348.787 113.25 347.646 108.138L347.664 108.12ZM311.339 59.6873C311.339 59.6873 311.339 59.6873 311.348 59.6873C311.348 59.6873 311.348 59.6963 311.348 59.7053C311.348 59.7053 311.348 59.7053 311.339 59.7053V59.6873ZM301.105 110.699C301.132 110.375 301.195 109.953 301.312 109.387C301.806 107.195 302.803 103.44 303.926 99.3789C303.953 102.263 303.989 105.308 304.016 108.444C302.767 109.639 301.743 110.456 301.096 110.699H301.105ZM339.272 108.453C339.299 105.326 339.335 102.272 339.362 99.3878C340.485 103.449 341.482 107.204 341.977 109.396C342.102 109.953 342.165 110.384 342.192 110.708C341.545 110.465 340.53 109.648 339.281 108.453H339.272Z" fill="#6A707E"/>
<path d="M72.8573 108.174C71.9588 104.167 69.506 95.4079 67.5743 88.6519L68.6255 88.3554L66.2445 79.9733C65.7504 78.2214 64.1241 77.1074 62.3811 77.1613C60.7459 76.3976 58.6165 75.4004 57.0352 74.6817C56.9364 71.6271 56.9094 68.5815 56.9543 65.5359C57.6911 65.2395 58.4368 64.4578 58.904 63.3977C59.2365 62.6431 59.3533 61.8884 59.3083 61.2416C59.9013 59.7592 59.7935 58.2678 59.7935 58.2678C62.1206 55.4738 60.2427 51.6915 60.2427 51.6915C62.9921 48.2416 64.5015 36.0054 52.6417 32.8609C40.7818 29.7165 35.4629 38.9701 35.4629 38.9701C35.4629 38.9701 32.6507 38.7994 30.8537 41.3329C29.0568 43.8664 30.8537 46.9569 30.8537 46.9569C26.6399 51.1165 32.3631 58.6452 32.3631 58.6452C31.0873 61.9962 33.603 63.6762 35.3101 64.4039C35.7234 64.9699 36.2176 65.3652 36.7028 65.5629C36.7477 68.6085 36.7297 71.6541 36.6219 74.6997C35.0406 75.4274 32.9112 76.4156 31.276 77.1793C29.533 77.1254 27.9067 78.2394 27.4126 79.9913L25.0316 88.3734L26.0828 88.6699C24.1511 95.4348 21.6983 104.185 20.7998 108.192C19.6587 113.304 21.4467 115.397 23.1538 116.26C23.8546 116.61 24.6183 116.772 25.409 116.772C26.5949 116.772 27.8977 116.296 29.2544 115.505C29.3173 122.719 29.3533 130.023 29.3533 136.42C29.3533 136.42 29.3892 136.438 29.4431 136.456L29.0657 148.081L27.718 189.938V224.634H26.2535V229.468H29.1915L26.2535 247.679C26.2535 247.679 28.8861 249.592 33.4952 249.592C38.329 249.592 42.2194 247.571 42.2194 247.571L39.5689 229.477H42.2194V224.643H41.5815L42.426 191.888L46.8016 156.032L51.2131 192.166L52.0577 224.922H51.4197V229.755H54.0343L52.3002 241.587L51.9229 244.148L51.4197 247.571C51.4197 247.571 55.3101 249.592 60.1439 249.592C64.9777 249.592 67.3856 247.679 67.3856 247.679L64.4925 229.746H67.3856V224.913H65.9211V190.217L64.196 136.699H63.639C64.0523 136.528 64.2859 136.42 64.2859 136.42C64.2859 130.023 64.3218 122.719 64.3847 115.505C65.7414 116.287 67.0442 116.772 68.2302 116.772C69.0298 116.772 69.7845 116.61 70.4853 116.26C72.1924 115.406 73.9804 113.304 72.8393 108.192L72.8573 108.174ZM36.5321 59.7412C36.5321 59.7412 36.5321 59.7412 36.541 59.7412C36.541 59.7412 36.541 59.7502 36.541 59.7592C36.541 59.7592 36.541 59.7592 36.5321 59.7592V59.7412ZM26.2985 110.753C26.3254 110.429 26.3883 110.007 26.5051 109.441C26.9993 107.249 27.9966 103.494 29.1197 99.4327C29.1466 102.317 29.1825 105.362 29.2095 108.498C27.9606 109.693 26.9364 110.51 26.2895 110.753H26.2985ZM64.4566 108.498C64.4835 105.371 64.5195 102.317 64.5464 99.4327C65.6695 103.494 66.6668 107.249 67.161 109.441C67.2868 109.998 67.3497 110.429 67.3766 110.753C66.7297 110.51 65.7144 109.693 64.4656 108.498H64.4566Z" fill="#6A707E"/>
</g>
<g clip-path="url(#clip1_1_34967)">
<path d="M256.48 158.874H113.72V162.804H256.48V158.874Z" fill="#363C44"/>
<path d="M269.19 115.574H101V126.174H269.19V115.574Z" fill="#363C44"/>
<path d="M269.19 123.634H101V126.164H269.19V123.634Z" fill="#363C44"/>
<path d="M115.46 126.174H106.24V180.314H115.46V126.174Z" fill="#363C44"/>
<path d="M115.46 126.174H111.66V180.314H115.46V126.174Z" fill="#363C44"/>
<path d="M106.24 141.054L115.46 134.704V126.174H106.24V141.054Z" fill="#363C44"/>
<path d="M106.24 126.174V139.424L126.17 126.174H106.24Z" fill="#363C44"/>
<path d="M106.24 128.014H123.4L126.17 126.174H106.24V128.014Z" fill="#363C44"/>
<path d="M109.77 134.744C109.77 135.174 109.42 135.524 108.99 135.524C108.56 135.524 108.21 135.174 108.21 134.744C108.21 134.314 108.56 133.964 108.99 133.964C109.42 133.964 109.77 134.314 109.77 134.744Z" fill="#363C44"/>
<path d="M113.87 132.454C113.87 132.884 113.52 133.234 113.09 133.234C112.66 133.234 112.31 132.884 112.31 132.454C112.31 132.024 112.66 131.674 113.09 131.674C113.52 131.674 113.87 132.024 113.87 132.454Z" fill="#363C44"/>
<path d="M117.76 130.204C117.76 130.634 117.41 130.984 116.98 130.984C116.55 130.984 116.2 130.634 116.2 130.204C116.2 129.774 116.55 129.424 116.98 129.424C117.41 129.424 117.76 129.774 117.76 130.204Z" fill="#363C44"/>
<path d="M263.95 126.174H254.73V180.314H263.95V126.174Z" fill="#363C44"/>
<path d="M258.53 126.174H254.73V180.314H258.53V126.174Z" fill="#363C44"/>
<path d="M263.95 141.054L254.73 134.704V126.174H263.95V141.054Z" fill="#363C44"/>
<path d="M263.95 126.174V139.424L244.02 126.174H263.95Z" fill="#363C44"/>
<path d="M263.95 128.014H246.79L244.02 126.174H263.95V128.014Z" fill="#363C44"/>
<path d="M260.42 134.744C260.42 135.174 260.77 135.524 261.2 135.524C261.63 135.524 261.98 135.174 261.98 134.744C261.98 134.314 261.63 133.964 261.2 133.964C260.77 133.964 260.42 134.314 260.42 134.744Z" fill="#363C44"/>
<path d="M256.32 132.454C256.32 132.884 256.67 133.234 257.1 133.234C257.53 133.234 257.88 132.884 257.88 132.454C257.88 132.024 257.53 131.674 257.1 131.674C256.67 131.674 256.32 132.024 256.32 132.454Z" fill="#363C44"/>
<path d="M252.43 130.204C252.43 130.634 252.78 130.984 253.21 130.984C253.64 130.984 253.99 130.634 253.99 130.204C253.99 129.774 253.64 129.424 253.21 129.424C252.78 129.424 252.43 129.774 252.43 130.204Z" fill="#363C44"/>
</g>
<path d="M206.904 119.667C206.904 123.057 203.387 125.813 199.041 125.813H171.959C167.614 125.813 164.097 123.057 164.097 119.667V116.085C164.097 112.695 167.614 109.939 171.959 109.939H199.041C203.387 109.939 206.904 112.695 206.904 116.085V119.667Z" fill="#D60A3D"/>
<path d="M210.767 57.9196C210.644 52.3306 207.945 47.846 202.401 48.4606C199.231 48.8159 187.09 47.6924 187.09 47.6924C187.09 47.6924 171.757 48.8159 168.587 48.4606C163.043 47.846 160.344 52.3402 160.221 57.9196C160.053 65.5828 163.738 86.8631 161.632 95.8995C159.986 102.987 175.509 103.371 185.489 103.774C195.479 103.371 210.991 102.987 209.345 95.8995C207.25 86.8535 210.935 65.5732 210.756 57.9196H210.767Z" fill="#D60A3D"/>
<path d="M172.183 111.918C171.813 111.918 171.432 111.88 171.052 111.813C168.352 111.304 144.563 106.569 139.579 95.2089C137.44 90.3402 141.326 83.8006 149.592 70.654C153.411 64.5849 157.735 57.6996 160.68 51.5248C161.778 49.2105 164.869 48.0966 167.568 49.0377C170.268 49.9788 171.567 52.6292 170.469 54.9435C167.322 61.5696 162.842 68.6758 158.899 74.9466C154.991 81.1693 148.987 88.6117 149.592 92.232C150.443 97.3792 164.836 101.345 173.314 102.939C176.159 103.477 177.973 105.887 177.346 108.336C176.809 110.459 174.613 111.899 172.183 111.899V111.918Z" fill="#D60A3D"/>
<path d="M198.817 111.918C199.187 111.918 199.567 111.88 199.948 111.813C202.648 111.304 226.437 106.569 231.421 95.2089C233.56 90.3402 229.674 83.8006 221.408 70.654C217.589 64.5849 213.265 57.6996 210.32 51.5248C209.211 49.2105 206.131 48.0966 203.432 49.0377C200.732 49.9788 199.433 52.6292 200.531 54.9435C203.678 61.5696 208.158 68.6758 212.1 74.9466C216.009 81.1693 222.013 88.6117 221.408 92.232C220.557 97.3792 206.164 101.345 197.686 102.939C194.841 103.477 193.027 105.887 193.654 108.336C194.191 110.459 196.387 111.899 198.817 111.899V111.918Z" fill="#D60A3D"/>
<path d="M185.5 42.7465H185.489C177.727 42.7465 170.862 43.073 171.802 44.8879C172.743 46.7029 171.802 50.5345 171.802 50.5345C175.185 53.7323 182.532 54.4621 185.5 54.4621C188.043 54.4621 195.816 53.7227 199.187 50.5345C199.187 50.5345 198.246 46.7029 199.187 44.8879C200.128 43.073 193.262 42.7465 185.5 42.7465Z" fill="#D60A3D"/>
<path d="M175.655 32.7502C176.763 35.1605 176.293 37.5709 174.602 38.147C172.911 38.7232 170.648 37.2348 169.539 34.8244C168.431 32.4141 168.901 30.0037 170.592 29.4275C172.283 28.8513 174.557 30.3494 175.655 32.7502Z" fill="#D60A3D"/>
<path d="M195.513 32.7502C194.404 35.1605 194.874 37.5709 196.565 38.147C198.257 38.7232 200.53 37.2348 201.628 34.8244C202.737 32.4141 202.266 30.0037 200.575 29.4275C198.884 28.8513 196.61 30.3494 195.513 32.7502Z" fill="#D60A3D"/>
<path d="M168.767 13.2559C171.657 27.5067 173.516 45.8581 173.516 45.8581C181.042 49.0559 191.223 49.0559 197.652 45.8581C197.652 45.8581 199.444 28.1693 202.233 14.0433C188.692 9.97163 174.378 12.1227 168.767 13.2559Z" fill="#D60A3D"/>
<path d="M181.501 30.0334C181.501 31.1378 181.042 32.0212 180.482 32.0212C179.922 32.0212 179.474 31.1282 179.474 30.0334C179.474 28.9387 179.933 28.0456 180.482 28.0456C181.031 28.0456 181.501 28.9387 181.501 30.0334Z" fill="#D60A3D"/>
<path d="M191.727 30.0334C191.727 31.1378 191.268 32.0212 190.719 32.0212C190.171 32.0212 189.7 31.1282 189.7 30.0334C189.7 28.9387 190.159 28.0456 190.719 28.0456C191.279 28.0456 191.727 28.9387 191.727 30.0334Z" fill="#D60A3D"/>
<path d="M181.434 30.8498C181.434 32.0982 180.997 33.0969 180.46 33.0969C179.922 33.0969 179.485 32.0886 179.485 30.8498C179.485 29.611 179.922 28.6027 180.46 28.6027C180.997 28.6027 181.434 29.611 181.434 30.8498Z" fill="#D60A3D"/>
<path d="M191.693 30.8498C191.693 32.0982 191.257 33.0969 190.719 33.0969C190.181 33.0969 189.733 32.0886 189.733 30.8498C189.733 29.611 190.17 28.6027 190.719 28.6027C191.268 28.6027 191.693 29.611 191.693 30.8498Z" fill="#D60A3D"/>
<path d="M188.042 36.2547C188.042 37.0902 186.81 37.7624 185.287 37.7624C183.764 37.7624 182.532 37.0902 182.532 36.2547C182.532 35.4193 183.764 34.7471 185.287 34.7471C186.81 34.7471 188.042 35.4193 188.042 36.2547Z" fill="#D60A3D"/>
<path d="M180.269 39.6649C180.269 39.6649 181.983 42.7474 185.578 42.7474C189.173 42.7474 191.38 39.6649 191.38 39.6649C191.38 39.6649 186.116 42.1232 180.258 39.6649H180.269Z" fill="#D60A3D"/>
<path d="M179.474 39.2804C179.474 39.2804 184.783 42.4014 192.388 39.2804H179.474Z" fill="#D60A3D"/>
<path d="M181.501 41.1335C182.375 41.9305 183.73 42.7468 185.589 42.7468C187.448 42.7468 188.859 41.9689 189.868 41.1911C185.6 41.9017 182.912 41.5272 181.512 41.1335H181.501Z" fill="#D60A3D"/>
<path d="M183.786 35.2462C183.786 35.2462 185.141 34.478 185.287 32.3557L183.786 35.2462Z" fill="#D60A3D"/>
<path d="M197.697 2.90411C196.33 3.71076 195.356 4.8151 195.356 4.8151C195.737 4.11408 196.431 3.36505 197.103 2.72165C196.722 2.60641 196.341 2.49118 195.938 2.38554C194.684 3.78758 193.732 5.49692 193.732 5.49692C193.553 4.33495 192.948 2.73125 192.455 1.54048C190.248 1.08914 187.896 0.791443 185.578 0.791443C176.483 0.791443 166.93 5.4297 166.93 5.4297C169.125 13.3138 170.928 25.0679 172.093 33.8738C175.173 30.9065 173.482 20.7849 173.482 20.7849C176.651 19.8438 185.589 19.3637 185.589 19.3637C185.589 19.3637 194.527 19.8438 197.697 20.7849C197.697 20.7849 196.005 30.9065 199.085 33.8738C200.25 25.0679 202.053 13.3138 204.249 5.4297C204.249 5.4297 201.572 4.13329 197.719 2.91371L197.697 2.90411Z" fill="#D60A3D"/>
<path d="M189.432 96.6591C189.432 98.7525 187.572 100.452 185.288 100.452C183.003 100.452 181.144 98.7525 181.144 96.6591C181.144 94.5656 183.003 92.8659 185.288 92.8659C187.572 92.8659 189.432 94.5656 189.432 96.6591Z" fill="#D60A3D"/>
<path d="M188.132 100.855H182.442L182.588 101.652H187.986L188.132 100.855Z" fill="#D60A3D"/>
<path d="M182.946 103.592H187.628L187.74 102.987H182.834L182.946 103.592Z" fill="#D60A3D"/>
<path d="M182.655 102.017L182.767 102.622H187.807L187.919 102.017H182.655Z" fill="#D60A3D"/>
<path d="M185.579 89.2922H184.996V91.8562H185.579V89.2922Z" fill="#D60A3D"/>
<path d="M181.098 90.1484L180.584 90.403L182.081 92.6231L182.595 92.3684L181.098 90.1484Z" fill="#D60A3D"/>
<path d="M177.846 92.7634L177.555 93.1957L180.144 94.4785L180.435 94.0462L177.846 92.7634Z" fill="#D60A3D"/>
<path d="M179.542 96.3993H176.551V96.8986H179.542V96.3993Z" fill="#D60A3D"/>
<path d="M189.48 90.153L187.982 92.3724L188.487 92.6224L189.984 90.4031L189.48 90.153Z" fill="#D60A3D"/>
<path d="M192.73 92.7462L190.139 94.0267L190.43 94.4593L193.021 93.1788L192.73 92.7462Z" fill="#D60A3D"/>
<path d="M194.024 96.3993H191.033V96.8986H194.024V96.3993Z" fill="#D60A3D"/>
<path d="M186.564 100.547L186.239 100.519C186.374 99.2799 186.643 96.8791 186.643 96.6294C186.643 96.2453 186.542 96.1205 186.508 96.1013C186.486 96.1013 186.43 96.1013 186.329 96.1877C186.318 96.1973 186.295 96.2165 186.284 96.2261C186.34 96.3029 186.396 96.3894 186.43 96.4854C186.564 96.8791 186.542 97.2056 186.385 97.3977C186.206 97.6089 185.847 97.5705 185.735 97.3208C185.612 97.0616 185.702 96.5814 185.892 96.2453C185.691 96.0917 185.433 96.034 185.287 96.034C185.153 96.034 184.895 96.0917 184.694 96.2453C184.884 96.5814 184.974 97.052 184.851 97.3208C184.739 97.5705 184.38 97.6089 184.201 97.3977C184.033 97.2056 184.022 96.8791 184.156 96.4854C184.19 96.3894 184.235 96.3029 184.302 96.2261C184.291 96.2165 184.268 96.1973 184.257 96.1877C184.156 96.1013 184.1 96.1013 184.078 96.1013C184.033 96.1109 183.943 96.2357 183.943 96.6294C183.943 96.8791 184.179 99.2799 184.313 100.519L183.988 100.547C183.977 100.403 183.619 96.9655 183.619 96.639C183.619 96.2069 183.731 95.938 183.955 95.8612C184.067 95.8228 184.246 95.8036 184.481 95.9956C184.492 96.0052 184.503 96.0148 184.526 96.034C184.772 95.8516 185.086 95.7844 185.299 95.7844C185.511 95.7844 185.825 95.8612 186.083 96.034C186.094 96.0244 186.105 96.0052 186.127 95.9956C186.363 95.8132 186.542 95.8228 186.654 95.8612C186.878 95.9476 186.99 96.2069 186.99 96.639C186.99 96.9655 186.598 100.403 186.587 100.547H186.564ZM186.105 96.5334C186.004 96.7831 185.971 97.0904 186.027 97.2248C186.049 97.2728 186.06 97.2728 186.071 97.2728C186.094 97.2728 186.105 97.2536 186.116 97.244C186.195 97.1576 186.239 96.9271 186.116 96.5718C186.116 96.5622 186.116 96.543 186.105 96.5334ZM184.47 96.5334C184.47 96.5334 184.47 96.5622 184.459 96.5718C184.335 96.9271 184.38 97.1576 184.459 97.244C184.459 97.2536 184.492 97.2728 184.503 97.2728C184.503 97.2728 184.526 97.2728 184.548 97.2248C184.615 97.0808 184.571 96.7831 184.47 96.5334Z" fill="#D60A3D"/>
<path d="M158.799 111.956H211.765C212.157 111.956 212.481 112.234 212.481 112.57V113.925C212.481 114.261 212.157 114.539 211.765 114.539H158.799C158.407 114.539 158.082 114.261 158.082 113.925V112.561C158.082 112.225 158.407 111.946 158.799 111.946V111.956Z" fill="#D60A3D"/>
<path d="M163.716 113.253C163.716 113.666 163.324 114.011 162.831 114.011C162.338 114.011 161.946 113.675 161.946 113.253C161.946 112.83 162.338 112.494 162.831 112.494C163.324 112.494 163.716 112.83 163.716 113.253Z" fill="#D60A3D"/>
<path d="M169.809 112.888H165.104V113.608H169.809V112.888Z" fill="#D60A3D"/>
<path d="M174.244 112.888H170.906V113.608H174.244V112.888Z" fill="#D60A3D"/>
<path d="M146.546 91.6646C147.464 93.3547 146.882 95.2657 145.224 95.9283C143.567 96.5909 141.483 95.7555 140.565 94.0653C139.647 92.3752 140.229 90.4642 141.887 89.8016C143.544 89.139 145.627 89.9745 146.546 91.6646Z" fill="#D60A3D"/>
<path d="M224.118 91.6646C223.2 93.3547 223.782 95.2657 225.44 95.9283C227.097 96.5909 229.181 95.7555 230.11 94.0653C231.029 92.3752 230.446 90.4642 228.789 89.8016C227.131 89.139 225.048 89.9745 224.118 91.6646Z" fill="#D60A3D"/>
<path d="M173.919 167.702V119.014C173.919 114.847 169.976 111.457 165.104 111.457C160.232 111.457 156.29 114.837 156.29 119.014V167.702H173.907H173.919Z" fill="#D60A3D"/>
<path d="M187.594 166.358L198.582 118.593C199.522 114.502 204.159 111.832 208.931 112.648C213.702 113.455 216.816 117.431 215.875 121.522L204.887 169.287L187.594 166.358Z" fill="#D60A3D"/>
<path d="M168.509 115.749C168.509 117.545 166.359 119.005 163.716 119.005C161.072 119.005 158.922 117.545 158.922 115.749C158.922 113.954 161.072 112.494 163.716 112.494C166.359 112.494 168.509 113.954 168.509 115.749Z" fill="#D60A3D"/>
<path d="M213.747 118.495C213.153 120.224 210.622 121.097 208.068 120.464C205.526 119.82 203.947 117.909 204.54 116.181C205.134 114.452 207.665 113.578 210.208 114.212C212.75 114.855 214.329 116.776 213.747 118.495Z" fill="#D60A3D"/>
<path d="M182.487 27.3062C182.364 27.2294 179.586 25.3568 176.798 27.3062L175.79 26.2402C178.836 24.1084 182.174 25.3088 183.506 26.2402L182.498 27.3062H182.487Z" fill="#D60A3D"/>
<path d="M188.67 27.3062C188.782 27.2294 191.57 25.3568 194.359 27.3062L195.367 26.2402C192.321 24.1084 188.983 25.3088 187.65 26.2402L188.658 27.3062H188.67Z" fill="#D60A3D"/>
<mask id="mask0_1_34967" style="mask-type:luminance" maskUnits="userSpaceOnUse" x="161" y="29" width="49" height="30">
<path d="M164.117 29.1847H206.527C208.137 29.1847 209.447 30.3079 209.447 31.6883V55.6097C209.447 56.9901 208.137 58.1133 206.527 58.1133H164.117C162.507 58.1133 161.197 56.9901 161.197 55.6097V31.6883C161.197 30.3079 162.507 29.1847 164.117 29.1847Z" fill="white"/>
</mask>
<g mask="url(#mask0_1_34967)">
</g>
<defs>
<clipPath id="clip0_1_34967">
<rect width="370" height="227" fill="white" transform="translate(0 22.5742)"/>
</clipPath>
<clipPath id="clip1_1_34967">
<rect width="168.19" height="64.74" fill="white" transform="translate(101 115.574)"/>
</clipPath>
</defs>
</svg>
